<svg xmlns="http://www.w3.org/2000/svg" viewBox="0 0 25 20"><defs><style>.cls-1{fill:#f2bc26;}</style></defs><title>Recurso 4</title><g id="Capa_2" data-name="Capa 2"><g id="Capa_1-2" data-name="Capa 1"><path class="cls-1" d="M25,5.32A.65.65,0,0,0,24.86,5c-.49-.65-1-1.3-1.49-1.94S21.5.94,20.88.19a.4.4,0,0,0-.64-.06,2.14,2.14,0,0,0-.43.57c-.61.9-1.25,1.76-1.88,2.64a19.37,19.37,0,0,0-1.58,2.25s0,0,0,0-.13.28,0,.38.28,0,.42,0l.07,0a3.41,3.41,0,0,0,.57-.5L20,2.52c0-.06.07-.08.11-.11s.06,0,.06.06v.07c-.19,1.67-.35,3.34-.66,5a6.45,6.45,0,0,1-.25,1.14,11.65,11.65,0,0,1-.5,1.62,1.94,1.94,0,0,1,0,.2,6.66,6.66,0,0,1-.75,1.78,13.83,13.83,0,0,1-3,3.88A13.94,13.94,0,0,1,12,18.09a6.75,6.75,0,0,1-1.38.52A4.46,4.46,0,0,1,8.88,19c-2.44.06-3.35,0-5.26-1.56a9.76,9.76,0,0,1-2.4-2.68A16.27,16.27,0,0,1,.09,12.37s0-.08-.09,0a9.73,9.73,0,0,0,.78,2.85.18.18,0,0,1,0,.07,8,8,0,0,0,1.22,1.83c.25.27.53.51.78.79l.31.25A6,6,0,0,0,7.88,20a7.35,7.35,0,0,0,3.24-.53,16.52,16.52,0,0,0,2.36-1,13.46,13.46,0,0,0,3-2.23c.34-.33.65-.69,1-1l.09-.12a7.28,7.28,0,0,0,1.56-2.33c.19-.43.38-.85.58-1.27.05-.12.09-.25.14-.37.25-.59.44-1.2.66-1.8A1.92,1.92,0,0,1,20.6,9c.17-.58.32-1.16.44-1.76A32.29,32.29,0,0,0,21.47,4a9.59,9.59,0,0,0,.09-1.42c.09-.11.15,0,.18.05C22,2.86,22.93,3.75,23.18,4l1.37,1.3a.49.49,0,0,0,.3.14C25,5.49,25,5.44,25,5.32Z"/></g></g></svg>