<svg xmlns="http://www.w3.org/2000/svg" viewBox="0 0 1080 700"><defs><style>.cls-1{fill:#f2bc26;}</style></defs><title>Recurso 5</title><g id="Capa_2" data-name="Capa 2"><g id="Capa_1-2" data-name="Capa 1"><path class="cls-1" d="M1079.92,421.15a12.35,12.35,0,0,0-2.55-5.62c-9.6-12.25-19-24.69-28.76-36.78-11.72-14.46-36-41-48-55.23-3.69-4.4-7.72-4.58-12.32-1.08-3.79,2.89-5.65,7.17-8.25,10.94-11.67,17-24.06,33.42-36.12,50.12-10.24,14.17-22.32,27-30.48,42.71-.05.32-.09.64-.17,1-.65,2.47-2.49,5.37,0,7.31s5.44.7,8.08-.53a8.36,8.36,0,0,0,1.44-.79,63,63,0,0,0,10.88-9.42q24.63-27.9,49.21-55.86c.37-1.08,1.38-1.56,2.23-2.06,1-.61,1.18.25,1.13,1.07,0,.44,0,.88,0,1.32-3.64,31.73-6.72,63.54-12.59,95-1.37,7.31-2.23,14.76-5,21.77a213.79,213.79,0,0,1-9.49,30.74c-.35,1.25-.63,2.53-1.06,3.75-7.19,20.31-4,15.1-14.36,34-15.34,27.94-34.61,52.69-58.66,73.57a262.53,262.53,0,0,1-55.41,36.66,127.39,127.39,0,0,1-26.59,10c-14.81,5-17.84,7.67-33.39,8.08-47,1.25-64.48-.61-101.41-29.65-18.18-14.3-34.16-30.79-46.17-50.84-8.76-14.64-15.37-30.3-21.67-46.11-.58-.21-1-1.62-1.78-.23A177.48,177.48,0,0,0,613.75,609a10.53,10.53,0,0,1,.93,1.29c6.34,12.58,13.8,24.37,23.39,34.77,4.82,5.23,10.26,9.8,15.1,15,2,1.58,4,3.12,5.87,4.75,33.49,28.51,47.2,33.11,91.4,35,25.43,1.1,38.17-1.89,62.39-10a300.85,300.85,0,0,0,45.4-19.66,259.23,259.23,0,0,0,58.27-42.26c6.56-6.3,12.5-13.17,18.78-19.72a28.64,28.64,0,0,1,1.65-2.42c17.33-21,18.68-19.58,30-44.26,3.69-8,7.46-16,11.19-24.08.9-2.32,1.74-4.68,2.71-7,4.74-11.24,8.56-22.83,12.76-34.28.07-2.12,1-4,1.64-6,3.29-11,6.29-22.16,8.61-33.46,4.18-20.36,6-41,8.19-61.67.92-8.93,2.11-17.87,1.8-26.9,1.75-2.14,2.75.18,3.43.91,5,5.26,22.82,22.24,27.79,27.5q13.11,12.42,26.24,24.84a10.81,10.81,0,0,0,5.88,2.67C1079.32,424.35,1080.3,423.29,1079.92,421.15Z"/><path d="M49.69,188.46c2.34-6.64,5.19-13.27,7.79-19.91,4.94-12.76,9.11-25.78,13.53-38.8C78.3,108.56,83.54,86.6,91.34,65.41c1.56-3.82,7.56-25,13.93-18.33,4.07,4.11-.61,17.13-1.66,22C102,75.45,99.7,81.57,98.13,88,91.32,115.28,85.28,143.13,80,171c-1.06,7.15-3.41,14.56-3.7,21.72,0,4.09.47,7.41-3.39,10.72-7.46,6.35-23.58,3.7-24.8-7v-.26A37,37,0,0,1,49.69,188.46Zm31.58-60.7a69.39,69.39,0,0,0,3.92-15.58c.54-4.85,1.84-7.66,2.88-11.75-1.82,6.39-6,12.76-7.27,19.66a171,171,0,0,0-3.46,22.48v.26A144.71,144.71,0,0,1,81.27,127.76Zm6.8-27.33a2,2,0,0,0,.27-1A2,2,0,0,1,88.07,100.43Zm12-85.61c1.81-4.08,4.38-5.34,8-8.65,3.08-2.8,5.66-6.11,10.51-3.52,1.79.77,6.38,4.89,7.39,6.94,3.54,7.7-6,18.13-11.9,21.17-4.62,2.27-9.49,3.52-14.6,1.45-1.28-.26-1.28.76-2.56-.78-1.52-2.06,0-4.35,0-6.14C93.35,25.27,99.55,15.84,100.07,14.82Z"/><path d="M298.09,25.51c-.26-.51,0,1.28,0,1.28,0,1.28.26,4.6-.26,4.86.26-.26-.25-1.79-.51-2.82a54.73,54.73,0,0,1-1,13.05c.51-1.28,1.28-3.07,1.28-3.07,1,5.11-4.35,16.36-5.89,20.2a110.73,110.73,0,0,1-14.85,27.62c-5.38,7.16-11,14.32-17.42,20.46-5.63,5.88-13.82,15.35-22,17.39,24.84-21.48,44.81-47.57,50.7-80.81-4.35,24-19.71,45-36.1,62.14-8.2,9-15.37,19.18-24.84,25.58C216.66,138,201.3,148,188.49,147.24c4.1,7.67,8.2,15.09,12.81,22.25l-8.2-14.58c7.17,11.77,23.56,35,25.87,37.6l17.66,20.2c4.1,4.61,8.71,11,13.06,14.58a6.54,6.54,0,0,1-1-1.79c0-.26,9,5.12,10,5.63,2.56,1,5.12,2,7.68,1.79,6.66,0,14.85-5.12,19.2-9.72,2.31-2.56,4.87-5.88,5.38,1,.26,2.81-.77,4.86-2.82,7.42-8.19,10.48-19.46,23-34.05,24.29-5.38.52-10.5-1.28-15.11-4.09-1-.77-13.32-12.27-13.06-13a.88.88,0,0,1,.51.25c-.25-.51-.77-.76-1-1,.51,1-2.56-1.28-2.82-1.53a34.25,34.25,0,0,1-4.61-5.63c-2.3-3.32-4.86-6.39-7.68-9.72-1.28-1-12-16.11-10-17.64.51-.26,1,1,1.28,1a49.91,49.91,0,0,1-2.81-5.12c0,.26.25.77,0,1.28-.52.26-12-22.25-13.06-24.29-2.31-4.61-5.64-9-6.92-14.07-1-3.32-.25-4.6-1.79-7.42-7.68,17.91-15.11,37.34-17.67,56.52a1.3,1.3,0,0,1-.51-1c-5.63,5.88-17.93,6.39-21.51-1.53-3.84-8.44,1.79-22,3.58-30.44,2.56-11.25,4.36-22.25,8.2-33,1.53-4.09,3.58-7.93,5.38-11.76.51-1,2-8.7,2.56-9a1.54,1.54,0,0,1,.25,1,5.94,5.94,0,0,0,.51-2.05c-1,2.31.26-4.09.26-4.34,1-3.07,2.31-6.14,3.59-9.21A75.09,75.09,0,0,0,166,96.09c.51-2,8.19-23.27,10.5-22.76.51,0-.51,1.79-.26,2,1-2.3,2.05-4.6,2.82-6.91a2.49,2.49,0,0,1-1,1.28c-.51-.25,13.58-30.69,14.86-33.76,2.3-5.62,4.61-11.76,7.93-16.87,1.54-2.05,3.33-2.82,4.36-4.35.77-1,1-3.07,1.79-4.35,1.28-2.56,4.1-8.7,7.43-10,5.37-2.31,9.21,4.85,10.75,9s.77,5.62-.77,8.44l.77-.52c.77.26-4.35,10.23-5.38,10-.25,0,.52-2.05,1.28-3.58C198.48,60.8,184.14,96.86,173.9,131.39a264,264,0,0,1,20.74-48.85l-2.56,5.88,6.14-13c-4.35,11.25-8.7,22.5-11.78,34.27a298.24,298.24,0,0,1,19.47-34c6.65-9.71,14.59-18.15,21.76-27.36,0,0,2.05-4.6,3.33-5.12A36.83,36.83,0,0,0,228.7,47l3.58-4.6c-.26,0-.26,0-.51-.26.51-3.58,6.4-8.69,8.7-11.25A138.76,138.76,0,0,1,251,20.14c5.64-5.63,13.58-15.35,21.51-17.65C285.8-1.34,297.07,13.23,298.09,25.51Zm-25.86,7.93C273.51,8.89,248.16,41.88,243.8,47,230,63.61,215.12,81.77,203.86,99.93a1.3,1.3,0,0,1,1.28-1s-8.2,15.6-9.22,17.13c-3.59,6.65-6.91,13.3-10.24,20,1-.51,11.26-5.11,11.78-4.6,0,.25-5.13,2.81-7.17,4.09,25.86-10.74,47.37-30.95,63-54.22a190.73,190.73,0,0,1-17.16,21c-3.84,3.84-7.94,7.93-12,11.51-2.05,1.53-6.66,4.09-8.71,6.14,2.3-2.82,7.17-5.37,9.47-7.67,3.08-2.56,6.15-5.37,9-8.19a191.79,191.79,0,0,0,17.15-21C261,69,271,51.59,272.23,34c-.26.51-.26.77,0-.26ZM193.1,154.91c-2-3.58-3.58-6.13-3.07-6.39C189.77,148.52,191.31,151.33,193.1,154.91ZM201.81,103c0,.25-.26.25-.26.51A.91.91,0,0,0,201.81,103Zm5.89-50.38L214.36,38a60.68,60.68,0,0,1-2.31,5.88A94.08,94.08,0,0,1,207.7,52.62Zm0,126.59c.25.26.25.51.51.51C208,179.72,208,179.47,207.7,179.21Zm.77,1V180c-.26-.51-.26-.26-.26-.26Z"/><path d="M371.07,137l-7.94,10.49L349.3,165.4c-3.58,4.6-7.94,8.95-11.52,13.55-3.84,5.12-7.17,10.49-11.53,15.35-4.61,4.86-10,10-16.13,13.3a16.67,16.67,0,0,1-13.06,1.28,34.28,34.28,0,0,1-16.9-11c-1.28-1.53-2.56-2.81-2.82-4.86a32,32,0,0,1-.51-5.11c-.25-3.07.77-5.37,1.28-8.44.52-3.33,2.05-6.4,2.56-9.72.52-3.58,1.54-6.91,2.05-10.23.26-3.07-.25-6.4.51-9.46.52-2.05,2-4.1,2.82-6.4-.77,1.54-2.05,3.07-2.3,4.35-.77,2.05-1.28,4.09-2.05,5.88-.77,2.05-1,3.84-1.79,5.88a22,22,0,0,0-2.31,6.91c-.26,2.3,0,4.6-.26,6.9a28,28,0,0,0-1,6.4c0,.77.51,2.3.51,2.81,0,1-.51,2.3-.51,3.58,0,2.3.51,4.6.77,7.16-4.1-7.16-3.33-14.32-2-22s2.3-15.09,4.1-22.51a102.66,102.66,0,0,1,20-41.94c7.94-10.48,18.44-18.41,32.27-15.86,5.12,1,10.75,3.33,14.08,7.68,3.58,4.86,3.33,11,1.54,16.62-3.33,10-11.78,17.9-19.72,24.55A83.64,83.64,0,0,1,316.52,148a46.71,46.71,0,0,1-8.19,3.58L304,153.12c-1.8.52-2.05.26-2.82,1.79-1.28,2.56-.51,5.12-1,7.68-.51,3.32-1.28,6.39-2,9.72-1.28,6.13-3.33,14.06-1.8,20.46,2.82,13,24.33-7.17,28.17-10.75,2.56-2.3,4.87-4.86,7.17-7.16a57.49,57.49,0,0,0,3.84-4.34,8,8,0,0,0,.51-1.79c3.08-4.86,7.17-9.47,11-14.07,4.6-5.37,8.7-11,13.06-16.88,2.3-3.32,7.68-12.79,11.77-5.88v.25c.26.26.26.26.26,0C373.11,134.2,372.35,135.48,371.07,137Zm-65.81,6.14A74.17,74.17,0,0,0,326.77,126l4.35-5.63c.77-1.28,2.05-2,2.56-3.58.26-1.28-.26-2.3,0-3.84l1-5.37c.26-2.56-.76-9.2-4.61-8.44-1.79.51-3.58,2.82-4.6,4.09l-4.61,6.14c-5.38,7.93-8.2,16.63-12,24.81a2,2,0,0,1-.25.77C307.3,137.52,306.54,140.34,305.26,143.15Z"/><path d="M500.63,153.89c-6.4,9.21-12.8,18.67-20,27.37-4.86,6.39-13.83,18.41-22.79,18.67-1.79.25-12.55-3.33-12-5.37l.26.25c-.51-.25-.51-.77-.77-1.28,0,.51-3.58-3.07-4.1-4.35a29.53,29.53,0,0,1-2.81-9.2,97.55,97.55,0,0,1-.77-14.84,44.92,44.92,0,0,1,2.56-15.34c.26-1,4.87-15.34,6.4-15.09.26,0-.77,2-.25,2.3.76-2.55,1.79-5.11,2.81-7.93a5.14,5.14,0,0,1-1,1.54c-.26-.26,6.91-17.65,8.19-20.46-8.45,7.93-12.8,18.92-21.25,27.11-5.38,5.37-9.48,15.6-13.83,22.76-3.58,6.14-6.91,15.34-15.11,7.42a13.28,13.28,0,0,1-4.09-7.93c-.26-3.33,1-6.65,1.79-9.72.77-2.81,0-3.84.25-6.91,1-9.2,6.92-18.15,10.25-26.85.77-2.81,9-18.41,4.86-18.67-.51-.25-4.35,5.12-5.12,5.88a121.4,121.4,0,0,0-8.7,11.26c-8.46,13-13.83,26.08-21,39.64-2.82,5.37-5.12,10.74-7.68,15.85-1,2.56-2.82,4.86-3.59,7.42a13.3,13.3,0,0,1-.51,3.33c-2.56,4.6-12.55-2.05-15.11-5.12-5.38-6.39-3.33-12.28-3.58-19.44-.52-9.46,3.07-18.67,6.14-27.62a91.85,91.85,0,0,1,5.12-13c1.28-2.3,3.33-4.35,4.36-6.9.76-1.28-.26-2.56,2-3.59,1.8-.76,4.36.77,5.89,2,2.05,1.79,3.33,5.12,4.61,6.65,1.28,1.79,3.84,3.07,2.82,6.65,0,.51-.51,1-.77,1.53-1.53,2.56-3.84,4.86-5.63,7.42-.77,1-2.05,2.56-2.31,3.84-.51,1.79,0,2.55-.51,4.34-.77,3.58-2.82,6.65-3.58,10.23-.52,2.31-1.54,5.12-1.54,7.42,0,2.56,1,4.6.51,7.42,3.84-6.14,5.64-13.81,9.22-20.46,4.1-8.19,8.19-16.88,13.06-24.81,4.1-6.39,9-12.53,13.06-19.18,3.33-5.37,9-13,15.62-13.81,9.22-1.28,16.39,10,14.34,18.16-1.79,6.39-5.63,12.78-7.94,18.92-3.07,9-5.63,18.16-8.19,27.11a179.53,179.53,0,0,1,11-18.92l-5.12,6.9c-.26-1.79,21-29.41,23.56-32,6.91-6.65,21.51-13.81,25.35.26,3.33,12.27-3.08,26.6-7.43,37.59-4.1,9.72-10,21.23-12,31a5.68,5.68,0,0,1,1-1.54s-1.79,12.28.51,12.79c4.87,1,14.85-12.79,17.67-15.85,6.91-7.68,13.57-15.86,20.23-23.79,1.28-1.53,12.55-16.88,14.34-11.25.26.51,0,.25,0,.25C510.88,140.59,504,149,500.63,153.89Zm-83-37.08v.25c1.53-3.83,6.14-15.85,4.61-19.43,1,4.09-5.13,20-6.15,22-2.56,5.88-5.63,11.77-7.68,17.9-1.79,5.12-3.59,12-3.59,17.91.52-5.63,3.08-11.77,5.12-16.88,2.57-6.91,4.1-14.32,7.17-20.72a3.78,3.78,0,0,1,.52-.77h-.26Z"/><path d="M587.69,137l-7.93,10.49-13.83,17.9C562.34,170,558,174.35,554.4,179c-3.84,5.12-7.17,10.49-11.52,15.35-4.61,4.86-10,10-16.13,13.3a16.67,16.67,0,0,1-13.06,1.28,34.28,34.28,0,0,1-16.9-11c-1.28-1.53-2.56-2.81-2.82-4.86a32,32,0,0,1-.51-5.11c-.26-3.07.77-5.37,1.28-8.44.51-3.33,2.05-6.4,2.56-9.72.51-3.58,1.54-6.91,2.05-10.23.26-3.07-.26-6.4.51-9.46.51-2.05,2.05-4.1,2.82-6.4-.77,1.54-2.05,3.07-2.31,4.35-.76,2.05-1.28,4.09-2,5.88-.77,2.05-1,3.84-1.8,5.88-1,2.31-2,4.35-2.3,6.91-.26,2.3,0,4.6-.26,6.9a28,28,0,0,0-1,6.4c0,.77.51,2.3.51,2.81,0,1-.51,2.3-.51,3.58,0,2.3.51,4.6.77,7.16-4.1-7.16-3.33-14.32-2.05-22s2.3-15.09,4.09-22.51a102.68,102.68,0,0,1,20-41.94c7.94-10.48,18.43-18.41,32.26-15.86,5.12,1,10.76,3.33,14.09,7.68,3.58,4.86,3.33,11,1.53,16.62-3.33,10-11.78,17.9-19.71,24.55A83.64,83.64,0,0,1,533.15,148a47,47,0,0,1-8.19,3.58l-4.36,1.53c-1.79.52-2.05.26-2.81,1.79-1.28,2.56-.52,5.12-1,7.68-.51,3.32-1.28,6.39-2,9.72-1.28,6.13-3.33,14.06-1.79,20.46,2.82,13,24.33-7.17,28.17-10.75,2.56-2.3,4.86-4.86,7.17-7.16a57.49,57.49,0,0,0,3.84-4.34,8,8,0,0,0,.51-1.79c3.07-4.86,7.17-9.47,11-14.07,4.61-5.37,8.71-11,13.06-16.88,2.31-3.32,7.68-12.79,11.78-5.88v.25c.26.26.26.26.26,0C589.74,134.2,589,135.48,587.69,137Zm-65.81,6.14A74,74,0,0,0,543.39,126l4.36-5.63c.76-1.28,2-2,2.56-3.58.25-1.28-.26-2.3,0-3.84l1-5.37c.26-2.56-.77-9.2-4.61-8.44-1.79.51-3.58,2.82-4.61,4.09l-4.61,6.14c-5.37,7.93-8.19,16.63-12,24.81a2,2,0,0,1-.26.77C523.93,137.52,523.16,140.34,521.88,143.15Z"/><path d="M671.94,135.48c1,8.18-11.78,14.83-17.16,18.67a196.6,196.6,0,0,1-23,14.83c-2,1-5.12,2.05-7.17,3.58-2.82,2.3-2.31,2.05-1.8,6.14a84.32,84.32,0,0,1,1.29,14.07A54.91,54.91,0,0,1,621,214c-6.14,15.86-18.43,26.09-36.1,25.58-15.62-.26-32.27-8.44-28.94-25.32-.26.51-1,4.86-1.28,4.6-1.79-1,0-6.65.51-7.93,3.08-9.46,11.27-16.88,19-22.76,4.35-3.32,8.71-6.65,13.06-9.46,3.33-2,11-5.12,11.52-8.7.77-3.58-2.56-11.25-3.58-15.09-1-4.85-2.82-10-3.33-15.08-.26-3.33.77-5.37,0-8.44-1.28-4.1-2.56-7.93-2.82-12.28s-.25-8.69,1.28-12.79c2-6.13,15.62-20.2,22.54-13.81,0-1.28,3.33,3.58,3.58,5.12,0,1-1,10.48-2.56,10.23,0,0,.51-2.3.77-4.09-1.28,3.58-3.33,6.9-3.58,10.74-.52,3.32.25,7.16.76,10.23,0-.51,0-1,.52-1.28-.26,0,2.56,13.3,4.86,24-1.79-6.91-4.1-15.09-5.12-20,2.05,11.25,4.61,22.25,7.17,33.25.26-.26.51-.77.26-2.05a10.64,10.64,0,0,1,.51,1.54c11.26-5.63,21.76-11,32.26-17.65,4.61-3.07,9.48-8.18,14.34-10.49,2.56-1,4.61-.51,5.38,3.07Zm-92.18,87.46,7.17-2.81c.25.26-2,1.79-2,2.05a29.16,29.16,0,0,0,7.93-6.91l-1.28,1c2.05-2,6.92-12.27,7.17-13.3,1.8-6.13,1.8-12.27,1.54-18.41a6.29,6.29,0,0,1-1.79,1l1.79-1.53-3.07,1.79c1.53-.51-3.33,3.32-4.1,3.84l-7.68,5.11c-5.12,3.58-10.76,7.42-14.6,12.53-2.3,3.33-9,13.81-2.3,15.86C572.07,224.48,576.17,223.71,579.76,222.94Zm34-5.37c-7.42,10.49-20.48,16.63-33,17.39a55,55,0,0,0,20-4.34C607.41,227.55,611,223.2,613.81,217.57Zm4.1-66.75a62.63,62.63,0,0,1,1.54,7.16A62.62,62.62,0,0,1,617.91,150.82Zm4.61,32.48a2,2,0,0,0,.25,1.28A11.14,11.14,0,0,1,622.52,183.3Z"/><path d="M776.41,150.31a190.41,190.41,0,0,1-11.26,21.48,194.65,194.65,0,0,1-15.37,21.74c-4.61,5.88-11,13.3-18.69,14.58-8.71,1.53-15.62-5.63-18.44-13.3-6.14-15.09-1.79-30.94,2.82-45.52a35.58,35.58,0,0,1,.25-4.09c-2.56,3.83-6.14,8.44-8.45,12-3.07,4.86-5.37,9.71-8.7,14.32-1.54,2.3-22.54,27.62-25.35,23.27,0,0,3.07-1.28,2.81-1.79a13.22,13.22,0,0,1-10.75,1.54c.77.51,1.28.76,1,.76-5.89.77-10.5-8.44-11.78-12.53-2-7.16-1.53-15.09-.25-22.25,2.81-14.83,9-30.94,17.67-43.73,2.3-3.07,4.61-6.65,7.93-9,2-1.79,3.85-2,6.15-3.58,3.84-3.33,7.17-6.14,12.8-6.14,12.55,0,17.67,14.32,20.23,24,6.15-7.93,17.16-18.41,26.63-6.91,5.13,6.14,1.8,10.75-1,16.37A118.19,118.19,0,0,0,733.9,160.8c.26-.77,1-4.61,2.05-4.86,2-.51-16.39,57.28,10,24.81,7.94-10,14.85-20.46,21.77-30.95,3.07-4.86,6.14-10,9.47-14.83,1.54-2.05,6.15-6.91,6.4-1.28C784.09,139.57,778.46,145.45,776.41,150.31Zm-65-18.92c0-2-5.12-16.12-3.84-17.14.26-.25,2.56,7.16,2.82,7.67-.77-3.06-1.8-12.53-6.41-12.53-8.45,0-14.85,15.6-17.66,21.49-5.13,11.5-9.73,23.78-11.78,36.31.76-3.84,15.62-50.13,20.23-49.87-3.59.77-17.16,40.15-17.93,43.73-.51,2-4.61,15.35-.77,16.63,2.56.76,8.71-7.16,10-9q7.31-8.83,13.83-18.42l6.66-9.46a64.2,64.2,0,0,1,3.58-5.37C711.37,133.43,711.37,133.43,711.37,131.39Zm.77-1.79v2.55C712.91,131.39,712.91,130.62,712.14,129.6Zm6.14,12.27L717,143.66c-.25.77-1,4.35-1,4.35Z"/><path d="M866.54,135.48c1,8.18-11.77,14.83-17.15,18.67a196.73,196.73,0,0,1-23,14.83c-2.05,1-5.12,2.05-7.17,3.58-2.82,2.3-2.3,2.05-1.79,6.14a84.32,84.32,0,0,1,1.28,14.07A54.71,54.71,0,0,1,815.59,214c-6.15,15.86-18.44,26.09-36.11,25.58-15.62-.26-32.26-8.44-28.93-25.32-.26.51-1,4.86-1.29,4.6-1.79-1,0-6.65.52-7.93,3.07-9.46,11.26-16.88,19-22.76,4.35-3.32,8.7-6.65,13.06-9.46,3.32-2,11-5.12,11.52-8.7.77-3.58-2.56-11.25-3.59-15.09-1-4.85-2.81-10-3.33-15.08-.25-3.33.77-5.37,0-8.44-1.28-4.1-2.56-7.93-2.81-12.28s-.26-8.69,1.28-12.79c2-6.13,15.62-20.2,22.53-13.81,0-1.28,3.33,3.58,3.59,5.12,0,1-1,10.48-2.56,10.23,0,0,.51-2.3.76-4.09-1.28,3.58-3.32,6.9-3.58,10.74-.51,3.32.26,7.16.77,10.23,0-.51,0-1,.51-1.28-.26,0,2.56,13.3,4.87,24-1.8-6.91-4.1-15.09-5.13-20,2,11.25,4.61,22.25,7.17,33.25.26-.26.52-.77.26-2.05a9.47,9.47,0,0,1,.51,1.54c11.27-5.63,21.77-11,32.27-17.65,4.61-3.07,9.47-8.18,14.34-10.49,2.56-1,4.61-.51,5.37,3.07Zm-92.18,87.46,7.17-2.81c.26.26-2,1.79-2,2.05a29.35,29.35,0,0,0,7.94-6.91l-1.28,1c2.05-2,6.91-12.27,7.17-13.3,1.79-6.13,1.79-12.27,1.53-18.41a6.29,6.29,0,0,1-1.79,1l1.79-1.53-3.07,1.79c1.54-.51-3.33,3.32-4.09,3.84L780,194.81c-5.12,3.58-10.75,7.42-14.59,12.53-2.31,3.33-9,13.81-2.31,15.86C766.68,224.48,770.77,223.71,774.36,222.94Zm34.06-5.37c-7.43,10.49-20.49,16.63-33,17.39a55,55,0,0,0,20-4.34C802,227.55,805.6,223.2,808.42,217.57Zm4.09-66.75a62.63,62.63,0,0,1,1.54,7.16A67.28,67.28,0,0,1,812.51,150.82Zm4.61,32.48c0,.51,0,1,.26,1.28A10.76,10.76,0,0,1,817.12,183.3Z"/><path d="M45.33,392.18c1,16.88-3.08,33.25-5.12,48.85a5.07,5.07,0,0,1,1-2c1-.51.26,4.86.26,5.12,6.65-12.79,15.62-24.3,22.27-37.09,10-18.67,23.82-35.29,36.62-52.17,11-14.07,22-27.88,34.83-40.41,5.63-5.62,12.29-10,18.18-15.09,1.53-1.27.77-2,3.07-2.81,4.1-1.28,9.22,4.09,10.5,7.42,3.33,9.2-14.08,12.27-18.44,16.11-2.05,1.79-2.3,3.84-4.35,5.88-2,2.3-4.87,4.09-7.17,6.4-5.38,5.11-11,10-15.88,15.6C104.22,367.37,89.37,387.58,75,408.8c-3.07,4.61-7.17,9.21-9.47,14.32-1.28,2.56-2.31,6.14-3.85,9-7.68,13.29-15.87,26.34-23,40.15-4.87,9.46-6.4,21.74-12.8,30.17C22,507.52-.25,512.12,0,501.38c0-3.58,3.59-8.44,4.87-11.76C7.43,482,8.71,474,10,466.09c1-7.42,1.79-15.35,3.84-22.51.77-2.55,1.54-4.09,1.79-6.65,0,0-.25-5.88.26-6.13,0,.25.25.51.25.76,0-.51.26-1,.26-1.79-.77,2.31-1-3.07-1-3.32-.26-2.3.25-4.6.25-6.91.51-5.37,1-10.48.51-15.85-.25-2.82-2-26.34.52-26.86.51-.25.25,1.79.76,1.79a68.43,68.43,0,0,1-.25-7.16c-.26.52-.26,1-.51,1.28.25-.76-2.56-28.13-2.82-30.18a138.59,138.59,0,0,0-2.05-14.83c-.51-2.56-1-5.37-1.28-7.93-.26-2,.51-4.09.51-5.62,0-1.79-1.28-3.07-.77-5.37.77-4.1,5.64-7.42,8.71-9.72,4.1-2.81,9.22-6.14,14.34-6.4,4.1-.51,4.1,1.54,4.87,4.35a4.34,4.34,0,0,1,.51-1.28c.77-.25,2.82,10.49,1.79,10.75-.51.25-.77-.77-1-1.8,1.28,8.7,2.3,17.65,2.81,26.35-.25-7.16-.51-13.3-.51-13.3s.51,8.69,1,19.95v3.06c0,.52.25.52.25,1,0-.26-.25-.51-.25-.77a2.36,2.36,0,0,0,.25,1.28,27.31,27.31,0,0,0,.26,4.6.25.25,0,0,1-.26-.25L43.79,363c0-.25-.26-.76-.26-1,0,.26.26.77.26,1ZM23.05,420.57c.77-11,.51-22.76.25-34a446.47,446.47,0,0,1-4.6,66.5C17.41,462,15.62,471,13.83,479.9c-.51,2.3-1.28,4.6-1.79,6.39a112.39,112.39,0,0,0,4.61-14.83c3.84-16.62,4.86-33.25,6.4-50.13Z"/><path d="M189.75,427.22l-7.94,10.48L168,455.6c-3.58,4.61-7.93,8.95-11.52,13.56-3.84,5.11-7.17,10.48-11.52,15.34-4.61,4.86-10,10-16.14,13.3a16.65,16.65,0,0,1-13.05,1.28,34.29,34.29,0,0,1-16.91-11c-1.28-1.53-2.56-2.81-2.81-4.86a30.91,30.91,0,0,1-.51-5.11c-.26-3.07.76-5.37,1.28-8.44.51-3.33,2-6.39,2.56-9.72.51-3.58,1.53-6.9,2-10.23.25-3.07-.26-6.39.51-9.46.51-2.05,2-4.09,2.81-6.39-.76,1.53-2,3.06-2.3,4.34-.77,2.05-1.28,4.09-2.05,5.89-.77,2-1,3.83-1.79,5.88a21.87,21.87,0,0,0-2.31,6.9c-.25,2.3,0,4.61-.25,6.91a27.83,27.83,0,0,0-1,6.39c0,.77.52,2.3.52,2.81,0,1-.52,2.31-.52,3.58,0,2.31.52,4.61.77,7.17-4.1-7.17-3.33-14.33-2-22s2.31-15.09,4.1-22.5a102.7,102.7,0,0,1,20-41.95c7.94-10.48,18.44-18.41,32.27-15.85,5.12,1,10.75,3.32,14.08,7.67,3.59,4.86,3.33,11,1.54,16.62-3.33,10-11.78,17.91-19.72,24.56a83.47,83.47,0,0,1-10.75,7.92,46.07,46.07,0,0,1-8.2,3.58l-4.35,1.54c-1.79.51-2,.25-2.82,1.79-1.28,2.56-.51,5.11-1,7.67-.51,3.33-1.28,6.39-2,9.72-1.28,6.14-3.33,14.06-1.79,20.46,2.81,13,24.32-7.16,28.16-10.74,2.57-2.3,4.87-4.86,7.17-7.16,1.28-1.54,2.82-2.82,3.85-4.35a8,8,0,0,0,.51-1.79c3.07-4.86,7.17-9.46,11-14.07,4.61-5.37,8.71-11,13.06-16.88,2.3-3.32,7.68-12.78,11.78-5.88v.26c.25.25.25.25.25,0C191.8,424.4,191,425.68,189.75,427.22Zm-65.81,6.13a74,74,0,0,0,21.51-17.13l4.35-5.63c.77-1.28,2-2,2.56-3.58.26-1.28-.25-2.3,0-3.83l1-5.37c.25-2.56-.77-9.21-4.61-8.44-1.79.51-3.59,2.81-4.61,4.09l-4.61,6.14c-5.38,7.92-8.19,16.62-12,24.8a2,2,0,0,1-.25.77C126,427.73,125.22,430.54,123.94,433.35Z"/><path d="M266.57,443.58c-5.64,7.16-10.76,14.84-16.9,21.49-4.61,4.86-12.29,13-19.46,10.74-1.54-.51-11-5.63-10.76-6.91l.77.51-1.54-1.53c1.28,2.05-1.53-.51-1.79-.51a19.32,19.32,0,0,1-3.07-4.86,19.71,19.71,0,0,1-1.54-8.44c0-2.81.51-5.63.77-8.44.51-5.88.77-11,2.56-16.62.51-1.28,5.89-15.6,7.68-15.09.51,0-.77,1.79-.51,2l3.58-7.16c-.51.51-.76,1-1.28,1.28-.25-.25,3.08-6.14,3.84-7.42-5.12,5.89-9.21,12-13.82,18.16-3.33,4.35-7.43,7.16-9.73,11.26-5.38,9.2-12,17.64-16.39,27.1l-1-2c-4.61,5.62-11.52-1-14.08-5.37-2.3-4.09-1.54-7.16-1-11.77.51-4.09.25-8.18,1.53-12.53C175.92,422.1,178,417,180,411.62c1.79-5.37,3.58-10.75,5.63-16.12,1.28-3.32,3.84-7.41,4.61-11,.77-2.82,0-4.61,3.33-6.65,3.07-1.79,6.4-1.54,9.73-1,4.09.77,11.52,5.12,7.17,11.51-1.79,2.3-4.87,4.86-6.92,7.42-2.3,2.81-2,4.09-3.07,7.42-.51,2-2.56,3.83-3.58,5.88a54.44,54.44,0,0,0-3.59,9.72c-.51,2-.25,3.58-.51,5.62-.51,5.37-2.31,10.74-2.82,16.11.26-1,2.05-2.81,2.31-2.55s-2.56,4.6-2.31,4.6l15.11-22c-3.33,4.34-5.89,7.41-5.89,7.41-.77-.51,29.7-39.38,33.29-42.71,7.43-6.9,16.9-6.65,20.49,5.37,4.09,12.79-9.22,21.23-15.37,30.44-3.33,5.11-6.14,11.25-8.71,16.62-1.79,3.33-5.63,10.74-6.14,16.37.51-3.84,3.33-8.44,4.35-11a35,35,0,0,1,9-13.55c-1.79,3.32-3.84,6.39-5.37,9.46l1.28-1.53c.51,0-2.31,8.69-2.56,9.2a41.38,41.38,0,0,0-2.31,9.72c-.25.26,0,4.35,0,4.35l.26.25c0-.25,1.79-.51,2.3-.76,3.84-1.28,7.69-4.86,10.76-7.42,6.14-4.86,12-10.23,17.92-15.34,4.36-4.1,10-8.19,13.57-12.54,1.54-2.3,5.13-6.39,6.41-.25C279.37,430.8,269.64,439.49,266.57,443.58Z"/><path d="M356.7,427.22l-7.94,10.48-13.83,17.9c-3.58,4.61-7.93,8.95-11.52,13.56-3.84,5.11-7.17,10.48-11.52,15.34-4.61,4.86-10,10-16.13,13.3a16.67,16.67,0,0,1-13.06,1.28,34.22,34.22,0,0,1-16.9-11c-1.28-1.53-2.57-2.81-2.82-4.86a30.91,30.91,0,0,1-.51-5.11c-.26-3.07.76-5.37,1.28-8.44.51-3.33,2.05-6.39,2.56-9.72.51-3.58,1.53-6.9,2.05-10.23.25-3.07-.26-6.39.51-9.46.51-2.05,2.05-4.09,2.82-6.39-.77,1.53-2.05,3.06-2.31,4.34-.77,2.05-1.28,4.09-2.05,5.89-.77,2-1,3.83-1.79,5.88a22.12,22.12,0,0,0-2.31,6.9c-.25,2.3,0,4.61-.25,6.91a27.83,27.83,0,0,0-1,6.39c0,.77.52,2.3.52,2.81,0,1-.52,2.31-.52,3.58,0,2.31.52,4.61.77,7.17-4.09-7.17-3.33-14.33-2.05-22s2.31-15.09,4.1-22.5a102.7,102.7,0,0,1,20-41.95c7.94-10.48,18.44-18.41,32.27-15.85,5.12,1,10.75,3.32,14.08,7.67,3.59,4.86,3.33,11,1.54,16.62-3.33,10-11.78,17.91-19.72,24.56a83.47,83.47,0,0,1-10.75,7.92,46.07,46.07,0,0,1-8.2,3.58l-4.35,1.54c-1.79.51-2.05.25-2.82,1.79-1.28,2.56-.51,5.11-1,7.67-.51,3.33-1.28,6.39-2,9.72-1.28,6.14-3.33,14.06-1.79,20.46,2.81,13,24.32-7.16,28.17-10.74,2.56-2.3,4.86-4.86,7.17-7.16,1.28-1.54,2.81-2.82,3.84-4.35a8,8,0,0,0,.51-1.79c3.07-4.86,7.17-9.46,11-14.07,4.61-5.37,8.71-11,13.06-16.88,2.3-3.32,7.68-12.78,11.78-5.88v.26c.25.25.25.25.25,0C358.75,424.4,358,425.68,356.7,427.22Zm-65.81,6.13a74,74,0,0,0,21.51-17.13l4.35-5.63c.77-1.28,2.05-2,2.56-3.58.26-1.28-.25-2.3,0-3.83l1-5.37c.25-2.56-.77-9.21-4.61-8.44-1.79.51-3.59,2.81-4.61,4.09l-4.61,6.14c-5.38,7.92-8.19,16.62-12,24.8a2,2,0,0,1-.26.77C292.94,427.73,292.17,430.54,290.89,433.35Z"/><path d="M423.53,446.4l22.28-16.63c2.05-1.53,13.57-13.3,16.39-7.92,1,3.06-2.31,6.64-4.36,8.69-6.14,6.39-13.31,11.76-20.23,17.39-3.07,2.56-7.17,5.12-9.73,7.93-2,2.3-1.79,2.56-1.79,5.63a57,57,0,0,1-.25,6.65,66.21,66.21,0,0,1-6.15,21c-12.55,27.1-34.31,54-62.48,65.47,12-6.91,25.35-15.35,34.31-26.35,5.89-7.16,11.27-14.83,14.6-23.52,2.56-6.65,6.14-13.81,8.45-20.72-2.56,7.42-7.43,15.35-11.27,22-4.61,7.92-10.5,15.08-16.13,22.5-7.43,10.23-18.18,17.9-28.68,24.55-11,7.16-26.12,8.19-38.92,6.65a50.55,50.55,0,0,1-12.29-3.07c-4.1-1.79-7.94-4.09-10.25-7.93-1.79-2.81-1.53-7.92-1.79-9a20.35,20.35,0,0,1,.26-4.09c-.52,1.28-1,2.81-1.28,2.81-3.33-3.32,4.86-15.85,6.91-18.92,6.66-8.7,17.16-14.58,26.38-19.95,23.55-14.06,48.9-24.29,72.21-38.1,4.61-2.82,7.17-3.58,6.65-9-.51-3.83-2-9.2-4.86-12-5.63-5.37-15.36-1.53-21.25,1.28-4.87,2.56-10.76,7.93-15.88,9.21-4.1.77-7.43-2.05-8.45-5.88-.77-2.56.51-4.86,2.05-6.65v-.26c-1.28-.51,7.68-5.62,7.94-5.62a39.09,39.09,0,0,0,9.73-6.14c3.58-3.07,7.42-5.12,11.52-7.67a42.79,42.79,0,0,0,5.12-4.1,26.39,26.39,0,0,1,2.56-3.58c2.31-2.3,5.38-4.09,7.68-6.39,4.1-4.09,7.43-9.21,11.53-13.55L411,392.43h.77c.51,1-22.53,6.91-24.32,7.17-3.59.76-9,2.3-12.55.76-2.05-.76-2.56-2-4.1-3.07s-3.33-.51-4.86-2.81c-1.54-2.81-.77-6.14.76-8.69,1.28-2.05,4.36-5.63,6.92-6.14,1.53-.26,2.3.25,3.33.25v-.25c-.26-1,7.42-2,7.42-1.28,0,.25-.77.77-1.79,1,5.38-.77,10.5-1.53,15.88-1.79-3.08,0-6.41,0-6.41-.25,0-.52,30-1.54,32.78-1.54,4.87.26,14.85,0,13.57,7.42-.51,3.07-3.84,6.39-5.89,8.44-6.4,6.65-15.36,11.51-21.51,16.88a3.43,3.43,0,0,1,2-.77s-18.95,17.9-20.74,19.44c14.6-.77,25.61,5.62,30.47,19.69a2,2,0,0,0,.52-1.28C423.28,445.89,423.53,446.14,423.53,446.4Zm-24.07,29.66c-8.45,5.37-17.41,10-25.86,15.09-.26.26-4.1,4.09-5.64,3.84l4.1-2.81-5.63,3.06a.56.56,0,0,1,.51.52c-1.79,2.81-7.94,5.37-10.76,6.9l-11.52,6.65c-7.17,4.09-14.59,8.18-20.74,13.81-6.4,5.63-18.18,16.62-10.5,25.32a8.76,8.76,0,0,0,4.61,2.81c2.05.51,13.06-1.28,13.32-1.28a18.49,18.49,0,0,0-1.8,1,87.21,87.21,0,0,0,10-4.61h-.26c2.57-1.28,6.41-4.34,8.2-5.37a76.69,76.69,0,0,0,9-6.9,214,214,0,0,0,18.95-18.42c10-11,17.16-22,22.53-35.54A42,42,0,0,0,399.46,476.06ZM369,432.59c.25,0,.25,0,.51-.26h-.26Zm52.49,9.2c-2.81-4.6-9-10.48-10.24-11.5.26.25-11.52-4.61-11.52-3.84,0-1.28,11.52,3.32,11,3.07A26.42,26.42,0,0,1,421.48,441.79ZM407.4,509.31c0,.26-.26.26-.51.51C407.14,509.57,407.4,509.57,407.4,509.31Zm14.08-67.52c1,1.54,1.8,2.82,1.8,3.84A26.52,26.52,0,0,0,421.48,441.79Zm.26-65h3.07c-.51,0-1.28-.25-1.53-.25H423A11.14,11.14,0,0,0,421.74,376.83Zm3.58,81.08c-1.28,1-1,12.78-1.53,16.11a52.25,52.25,0,0,0,1.28-6.65A58.68,58.68,0,0,0,425.32,457.91Z"/><path d="M559.25,434.38c-3.59,6.13-8.45,11.76-13.32,17.13-7.42,7.93-18.18,21-30.21,21.74a15.62,15.62,0,0,1-14.6-7.42c-5.38-9.71.26-22,3.58-30.94-6.65,7.93-13.05,15.85-19.46,24-1.79,2.3-21.25,22-23.81,18.67,0-.26,2.3-1.28,2.05-1.54-2.56,1.54-5.38,2.82-8.2,2.82a2,2,0,0,0,1.28.25c.52,1.79-6.91-1-7.68-1.53-2.81-2.56-4.1-6.65-4.86-10.23-1.28-8.19,0-16.37,2.05-24.3,2-8.18,4.09-16.11,7.68-24,1.79-4.09,4.86-6.14,6.66-9.72,2.81-6.39,6.4-14.57,12-19.18,4.61-4.09,12.8-3.32,17.41.26s2,5.37,0,8.95a4.34,4.34,0,0,1,1.54-1.53c.51,0-5.63,12.53-6.91,12.27A31.44,31.44,0,0,1,486,406c-3.33,5.88-6.4,12-9.22,18.16a1.87,1.87,0,0,1,1.54-1c-.51-.25-9.73,23.53-10.5,25.58-1,3.83-5.63,15.09,1.28,12.79,7.43-2.05,14.6-12.28,19.21-17.65,6.14-6.91,11.26-14.32,16.64-22,5.63-8.44,12.29-22.51,25.35-18.93,11.52,3.33,2.82,15.6-.77,22.76.52-.51,1-1.28,1.28-1,1.54,1.79-3.58,11.51-4.35,14.06-1.54,4.86-3.58,10.49-3.84,15.86-.26,6.14,1.54,4.35,5.63,1.28,8.71-6.91,15.88-15.6,23.31-23.53.51-.51,12.29-14.06,13.06-9.21C564.88,426.19,560.78,431.82,559.25,434.38Zm-87.83,2.3c-2.82,6.9-8.2,17.13-6.66,24.55C464.25,458.93,467.83,446.65,471.42,436.68Zm34.31-2.81a2.48,2.48,0,0,0-1,2.3A9.15,9.15,0,0,1,505.73,433.87Zm26.37-21.74c-2.56,6.39-10.24,14.57-8.19,21a1,1,0,0,1-.26.77c.26-.26.52-.52.52-.77.76-1.28,1-3.33,1.53-4.86C527.5,422.87,530.06,417.75,532.1,412.13Z"/><path d="M643,427.22,635,437.7l-13.83,17.9c-3.58,4.61-7.93,8.95-11.52,13.56-3.84,5.11-7.17,10.48-11.52,15.34-4.61,4.86-10,10-16.13,13.3A16.67,16.67,0,0,1,569,499.08a34.22,34.22,0,0,1-16.9-11c-1.28-1.53-2.56-2.81-2.82-4.86a30.91,30.91,0,0,1-.51-5.11c-.26-3.07.77-5.37,1.28-8.44.51-3.33,2.05-6.39,2.56-9.72.51-3.58,1.53-6.9,2-10.23.25-3.07-.26-6.39.51-9.46.51-2.05,2.05-4.09,2.82-6.39-.77,1.53-2.05,3.06-2.31,4.34-.77,2.05-1.28,4.09-2,5.89-.77,2-1,3.83-1.79,5.88-1,2.3-2.05,4.34-2.3,6.9-.26,2.3,0,4.61-.26,6.91a27.83,27.83,0,0,0-1,6.39c0,.77.52,2.3.52,2.81,0,1-.52,2.31-.52,3.58,0,2.31.52,4.61.77,7.17-4.09-7.17-3.33-14.33-2-22s2.31-15.09,4.1-22.5a102.7,102.7,0,0,1,20-41.95c7.94-10.48,18.44-18.41,32.27-15.85,5.12,1,10.75,3.32,14.08,7.67,3.59,4.86,3.33,11,1.54,16.62-3.33,10-11.78,17.91-19.72,24.56a83.47,83.47,0,0,1-10.75,7.92,46.07,46.07,0,0,1-8.2,3.58l-4.35,1.54c-1.79.51-2,.25-2.82,1.79-1.28,2.56-.51,5.11-1,7.67-.51,3.33-1.28,6.39-2,9.72-1.28,6.14-3.33,14.06-1.79,20.46,2.81,13,24.32-7.16,28.17-10.74,2.56-2.3,4.86-4.86,7.17-7.16,1.28-1.54,2.81-2.82,3.84-4.35a8,8,0,0,0,.51-1.79c3.07-4.86,7.17-9.46,11-14.07,4.61-5.37,8.71-11,13.06-16.88,2.3-3.32,7.68-12.78,11.78-5.88v.26c.25.25.25.25.25,0C645,424.4,644.26,425.68,643,427.22Zm-65.81,6.13a74,74,0,0,0,21.51-17.13l4.35-5.63c.77-1.28,2.05-2,2.56-3.58.26-1.28-.25-2.3,0-3.83l1-5.37c.25-2.56-.77-9.21-4.61-8.44-1.79.51-3.59,2.81-4.61,4.09l-4.61,6.14c-5.38,7.92-8.19,16.62-12,24.8a2,2,0,0,1-.26.77C579.22,427.73,578.45,430.54,577.17,433.35Z"/><path d="M733.37,427.73c-1.54,5.62-4.86,10.74-7.94,15.85-7.68,12.28-14.34,25.32-22.79,37.6-9.22,13.3-19.2,26.85-31,38.36-10,9.46-23.82,16.88-35.85,5.88-10.76-10-10.76-27.87-10-41.43,1-14.32,4.87-28.13,8.2-41.94.25-.51,0-6.65,1.28-8.44a34.83,34.83,0,0,0-.52,3.84,45.15,45.15,0,0,1,1.8-5.37h-.77c-.77-5.12,2.81-13.05,4.35-17.91,1.79-5.88,3.84-12,5.89-17.9,3.84-11,7.94-21.74,11.52-32.73,3.33-11,8.45-21.49,13.58-31.72q3.45-7.29,7.68-14.57c.77-1.28,6.4-12.28,7.68-12l-2,4.34,8.2-14.06-.26.25c1.28-2,3.07-5.88,4.35-7.41l5.89-7.93c3.59-4.35,7.94-10.49,13.83-12.28,11.27-3.58,20.49,8.19,22,18.16l.26.26v1.28c1.53,15.6-7.68,34-14.6,47.31-4.1,8.18-8.45,18.16-14.85,24.81-4.35,4.85-6.66,10-10.24,15.85a465.37,465.37,0,0,1-31.76,45.52c-2.81,3.58-4.6,5.89-5.88,10.49-1.54,4.86-2.82,9.72-4.1,14.83-1.54,5.12-2.82,10.23-4.1,15.35-.51,2.3-2.82,9.46-2.56,10a60.92,60.92,0,0,0-1.54,9.46l2-7.67c1.28,2.05-.77,9.72-1,12a92.2,92.2,0,0,0-.77,12c0,4.86,0,15.86,6.4,16.88,8.71,1,17.93-12,22.28-17.39,10.5-12.53,19.2-26.6,27.91-40.41,4.61-7.16,9-14.32,13.32-21.74,2.81-4.6,5.12-11,8.7-14.83C733.88,414.17,734.39,423.64,733.37,427.73ZM639.14,442.3c-1,0-2.31,5.38-3.08,11.26v-.26a198.57,198.57,0,0,0-3.32,27.62l.76-8.18v.77a36.19,36.19,0,0,1,.77-5.12c1.54-7.67,1.79-17.39,4.87-24.55a2,2,0,0,1,.25-.77C639.65,442.82,639.65,442.05,639.14,442.3Zm32.52-43.73c19-30.43,40.46-62.4,52-96.67-4.35,12.28-10.76,24-16.64,35.29-3.59,6.4-6.92,12.79-10.76,19.19-2.3,3.83-6.91,9.71-8.45,13.81,2.05-6.65,8.19-14.33,11.78-20.46l10.75-20c6.15-12.28,15.37-27.37,15.88-41.69v-.25c.51-13.56-11,1.79-12.8,4.6-7.17,11.51-12.29,24-17.42,36.31C686.51,351.52,679.08,376.07,671.66,398.57ZM680.11,327a1.54,1.54,0,0,0-.26,1c5.64-10.23,12.29-19.95,17.67-30.69-2.56,4.6-7.17,8.69-9.73,13.55C685,316.22,682.41,321.34,680.11,327Z"/><path d="M839.38,440.51A189,189,0,0,1,828.11,462a194.21,194.21,0,0,1-15.36,21.74c-4.61,5.88-11,13.29-18.69,14.57-8.71,1.54-15.62-5.62-18.44-13.3-6.15-15.08-1.79-30.94,2.82-45.52a35.58,35.58,0,0,1,.25-4.09c-2.56,3.84-6.14,8.44-8.45,12-3.07,4.86-5.38,9.72-8.7,14.32C760,464,739,489.36,736.19,485c0,0,3.07-1.27,2.81-1.79a13.22,13.22,0,0,1-10.75,1.54c.77.51,1.28.77,1,.77-5.89.76-10.5-8.44-11.78-12.54-2-7.16-1.53-15.08-.25-22.25,2.81-14.83,9-30.94,17.66-43.73,2.31-3.07,4.61-6.65,7.94-8.95,2-1.79,3.84-2,6.15-3.58,3.84-3.32,7.17-6.14,12.8-6.14,12.55,0,17.67,14.32,20.23,24,6.15-7.93,17.16-18.41,26.63-6.9,5.12,6.14,1.8,10.74-1,16.37A118.12,118.12,0,0,0,796.87,451c.26-.77,1-4.6,2-4.86,2.05-.51-16.39,57.29,10,24.81,7.94-10,14.85-20.46,21.76-30.95,3.08-4.86,6.15-10,9.48-14.83,1.54-2.05,6.14-6.9,6.4-1.28C847.06,429.77,841.43,435.66,839.38,440.51Zm-65-18.92c0-2-5.12-16.11-3.84-17.14.25-.25,2.56,7.17,2.82,7.68-.77-3.07-1.8-12.53-6.41-12.53-8.45,0-14.85,15.6-17.67,21.48-5.12,11.51-9.73,23.78-11.77,36.31.76-3.83,15.62-50.12,20.23-49.87-3.59.77-17.16,40.16-17.93,43.74-.51,2-4.61,15.34-.77,16.62,2.56.77,8.71-7.16,10-8.95q7.29-8.82,13.83-18.42l6.65-9.46c1-1.79,2.31-3.58,3.59-5.37C774.34,423.64,774.34,423.64,774.34,421.59Zm.77-1.79v2.56C775.88,421.59,775.88,420.82,775.11,419.8Zm6.14,12.28L780,433.87c-.25.76-1,4.34-1,4.34Z"/><path d="M863.7,493.45c-1.79,4.1-4.35,5.37-7.93,8.7-3.08,2.81-5.64,6.14-10.5,3.58-1.8-.77-6.41-4.86-7.43-6.91-3.58-7.67,5.89-18.15,11.78-21.22,4.61-2.3,9.47-3.58,14.6-1.54,1.28.26,1.28-.76,2.56.77,1.53,2.05,0,4.35,0,6.14C870.36,483,864.22,492.43,863.7,493.45Zm49.42-173.9c-2.3,6.65-5.12,13.3-7.68,19.95-4.86,12.78-9,25.83-13.31,38.87-7.17,21.23-12.29,43.22-20,64.45-1.53,3.83-7.42,25.06-13.82,18.41-4.1-4.09.51-17.13,1.53-22,1.54-6.4,3.84-12.54,5.38-18.93,6.66-27.36,12.55-55.24,17.67-83.12,1-7.16,3.33-14.57,3.58-21.73,0-4.1-.51-7.42,3.33-10.75,7.43-6.39,23.56-3.83,24.84,6.91v.26A36.59,36.59,0,0,1,913.12,319.55Zm-37.89,88.23a1.91,1.91,0,0,0-.26,1A1.91,1.91,0,0,1,875.23,407.78Zm6.65-27.37A70.07,70.07,0,0,0,878,396c-.51,4.85-1.79,7.67-2.81,11.76,1.79-6.39,5.89-12.79,7.17-19.69a173.18,173.18,0,0,0,3.33-22.51v-.25A144.68,144.68,0,0,1,881.88,380.41Z"/></g></g></svg>