<svg xmlns="http://www.w3.org/2000/svg" viewBox="0 0 446.49 273.86"><title>Recurso 1</title><g id="Capa_2" data-name="Capa 2"><g id="Capa_1-2" data-name="Capa 1"><path d="M24.26,92.11c1.14-3.24,2.53-6.48,3.8-9.73,2.41-6.23,4.44-12.6,6.6-19C38.22,53.06,40.78,42.33,44.59,32c.76-1.87,3.69-12.23,6.8-9,2,2-.3,8.37-.81,10.74-.77,3.13-1.91,6.12-2.68,9.24-3.32,13.36-6.27,27-8.85,40.58-.52,3.5-1.66,7.11-1.8,10.61,0,2,.23,3.63-1.66,5.24C32,102.53,24.08,101.24,23.49,96v-.12A18.07,18.07,0,0,1,24.26,92.11ZM39.67,62.45a34.34,34.34,0,0,0,1.92-7.62A35.21,35.21,0,0,1,43,49.09c-.89,3.12-2.91,6.23-3.55,9.6a85.33,85.33,0,0,0-1.69,11v.12A72.81,72.81,0,0,1,39.67,62.45ZM43,49.09a.92.92,0,0,0,.13-.5A.92.92,0,0,1,43,49.09ZM48.85,7.24c.88-2,2.14-2.61,3.9-4.22,1.5-1.37,2.76-3,5.13-1.73a11.75,11.75,0,0,1,3.61,3.4c1.73,3.76-2.93,8.86-5.81,10.34-2.26,1.12-4.63,1.73-7.13.71-.62-.13-.63.37-1.25-.38-.74-1,0-2.12,0-3C45.57,12.35,48.6,7.74,48.85,7.24Z"/><path d="M145.51,12.47c-.12-.25,0,.62,0,.62,0,.63.13,2.25-.12,2.38.12-.13-.13-.88-.25-1.38a27.51,27.51,0,0,1-.5,6.38c.25-.63.62-1.5.62-1.5.5,2.5-2.12,8-2.87,9.87a53.85,53.85,0,0,1-7.25,13.5,82.49,82.49,0,0,1-8.5,10c-2.75,2.88-6.75,7.5-10.75,8.5,12.12-10.5,21.87-23.25,24.75-39.5-2.13,11.75-9.63,22-17.63,30.38-4,4.37-7.5,9.37-12.12,12.5C105.76,67.47,98.26,72.34,92,72c2,3.75,4,7.37,6.25,10.87l-4-7.12c3.5,5.75,11.5,17.12,12.63,18.37l8.62,9.88c2,2.25,4.25,5.37,6.38,7.12a3,3,0,0,1-.5-.87c0-.13,4.37,2.5,4.87,2.75a8.16,8.16,0,0,0,3.75.87c3.25,0,7.25-2.5,9.38-4.75,1.12-1.25,2.37-2.87,2.62.5a4.74,4.74,0,0,1-1.37,3.63c-4,5.12-9.5,11.25-16.63,11.87a12,12,0,0,1-7.37-2c-.5-.37-6.5-6-6.38-6.37a.42.42,0,0,1,.25.12c-.12-.25-.37-.37-.5-.5.25.5-1.25-.62-1.37-.75a16.29,16.29,0,0,1-2.25-2.75c-1.13-1.62-2.38-3.12-3.75-4.75-.63-.5-5.88-7.87-4.88-8.62.25-.13.5.5.63.5A27.13,27.13,0,0,1,97,97.47c0,.12.13.37,0,.62s-5.87-10.87-6.37-11.87c-1.13-2.25-2.75-4.38-3.38-6.88-.5-1.62-.12-2.25-.87-3.62C82.64,84.47,79,94,77.76,103.34a.66.66,0,0,1-.25-.5c-2.75,2.88-8.75,3.13-10.5-.75-1.87-4.12.88-10.75,1.75-14.87,1.25-5.5,2.13-10.88,4-16.13.75-2,1.75-3.87,2.63-5.75.25-.5,1-4.25,1.25-4.37a.76.76,0,0,1,.12.5,2.88,2.88,0,0,0,.25-1c-.5,1.12.13-2,.13-2.13.5-1.5,1.12-3,1.75-4.5A36.15,36.15,0,0,0,81,47c.25-1,4-11.38,5.13-11.13.25,0-.25.88-.13,1,.5-1.12,1-2.25,1.38-3.37a1.24,1.24,0,0,1-.5.62c-.25-.12,6.62-15,7.25-16.5A49.64,49.64,0,0,1,98,9.34c.75-1,1.63-1.37,2.13-2.12.37-.5.5-1.5.87-2.13.63-1.25,2-4.25,3.63-4.87,2.62-1.13,4.5,2.37,5.25,4.37a4,4,0,0,1-.38,4.13l.38-.25c.37.12-2.13,5-2.63,4.87a4.72,4.72,0,0,1,.63-1.75,220.51,220.51,0,0,0-23,52.63A129.67,129.67,0,0,1,95,40.34l-1.25,2.88,3-6.38A156.72,156.72,0,0,0,91,53.59,147.15,147.15,0,0,1,100.51,37c3.25-4.75,7.13-8.88,10.63-13.38,0,0,1-2.25,1.62-2.5A18.15,18.15,0,0,0,111.64,23l1.75-2.25c-.13,0-.13,0-.25-.13.25-1.75,3.12-4.25,4.25-5.5a68.82,68.82,0,0,1,5.12-5.25c2.75-2.75,6.63-7.5,10.5-8.62C139.51-.66,145,6.47,145.51,12.47Zm-12.62,3.87c.62-12-11.75,4.13-13.88,6.63-6.75,8.12-14,17-19.5,25.87a.65.65,0,0,1,.63-.5s-4,7.63-4.5,8.38c-1.75,3.25-3.38,6.5-5,9.75.5-.25,5.5-2.5,5.75-2.25,0,.12-2.5,1.37-3.5,2C105.51,61,116,51.09,123.64,39.72A94.16,94.16,0,0,1,115.26,50c-1.87,1.87-3.87,3.87-5.87,5.62a44.19,44.19,0,0,0-4.25,3c1.12-1.37,3.5-2.62,4.62-3.75,1.5-1.25,3-2.62,4.38-4a93.12,93.12,0,0,0,8.37-10.25c4.88-6.87,9.75-15.37,10.38-24-.13.25-.13.38,0-.12ZM94.26,75.72c-1-1.75-1.75-3-1.5-3.13A23.93,23.93,0,0,0,94.26,75.72Zm4.25-25.38c0,.13-.12.13-.12.25A.42.42,0,0,0,98.51,50.34Zm2.88-24.62,3.25-7.13a29.54,29.54,0,0,1-1.13,2.88A44.29,44.29,0,0,1,101.39,25.72Zm0,61.87c.12.13.12.25.25.25C101.51,87.84,101.51,87.72,101.39,87.59Zm.37.5V88c-.12-.25-.12-.13-.12-.13Z"/><path d="M181.14,67l-3.88,5.12-6.75,8.75c-1.75,2.25-3.87,4.38-5.62,6.63-1.88,2.5-3.5,5.12-5.63,7.5a33.33,33.33,0,0,1-7.87,6.5,8.14,8.14,0,0,1-6.38.62,16.71,16.71,0,0,1-8.25-5.37,4.61,4.61,0,0,1-1.37-2.38,14.8,14.8,0,0,1-.25-2.5c-.13-1.5.37-2.62.62-4.12s1-3.13,1.25-4.75.75-3.38,1-5a30,30,0,0,1,.25-4.63c.25-1,1-2,1.38-3.12a12,12,0,0,0-1.13,2.12c-.37,1-.62,2-1,2.88s-.5,1.87-.87,2.87a11,11,0,0,0-1.13,3.38c-.12,1.12,0,2.25-.12,3.37a13.61,13.61,0,0,0-.5,3.13c0,.37.25,1.12.25,1.37,0,.5-.25,1.13-.25,1.75,0,1.13.25,2.25.37,3.5-2-3.5-1.62-7-1-10.75s1.13-7.37,2-11A50.33,50.33,0,0,1,146,52.34c3.88-5.12,9-9,15.75-7.75,2.5.5,5.25,1.63,6.88,3.75,1.75,2.38,1.62,5.38.75,8.13-1.63,4.87-5.75,8.75-9.63,12a40,40,0,0,1-5.25,3.87,22.65,22.65,0,0,1-4,1.75l-2.12.75c-.88.25-1,.13-1.38.88-.62,1.25-.25,2.5-.5,3.75-.25,1.62-.62,3.12-1,4.75-.62,3-1.62,6.87-.87,10,1.37,6.37,11.87-3.5,13.75-5.25,1.25-1.13,2.37-2.38,3.5-3.5.62-.75,1.37-1.38,1.87-2.13a3.81,3.81,0,0,0,.25-.87,67.08,67.08,0,0,1,5.38-6.88c2.25-2.62,4.25-5.37,6.37-8.25,1.13-1.62,3.75-6.25,5.75-2.87v.12c.13.13.13.13.13,0C182.14,65.59,181.76,66.22,181.14,67ZM149,70a36.08,36.08,0,0,0,10.5-8.38l2.13-2.75c.37-.62,1-1,1.25-1.75s-.13-1.12,0-1.87l.5-2.63c.12-1.25-.38-4.5-2.25-4.12a5.73,5.73,0,0,0-2.25,2l-2.25,3c-2.63,3.87-4,8.12-5.88,12.12a1,1,0,0,1-.12.38C150,67.22,149.64,68.59,149,70Z"/><path d="M244.38,75.22c-3.12,4.5-6.25,9.12-9.75,13.37-2.37,3.13-6.75,9-11.12,9.13-.88.12-6.13-1.63-5.88-2.63l.13.13c-.25-.13-.25-.38-.38-.63,0,.25-1.75-1.5-2-2.12A14.47,14.47,0,0,1,214,88a47.2,47.2,0,0,1-.38-7.25,22.08,22.08,0,0,1,1.25-7.5c.13-.5,2.38-7.5,3.13-7.38.12,0-.38,1-.13,1.13.38-1.25.88-2.5,1.38-3.88a2.72,2.72,0,0,1-.5.75c-.13-.12,3.37-8.62,4-10-4.13,3.88-6.25,9.25-10.38,13.25-2.62,2.63-4.62,7.63-6.75,11.13-1.75,3-3.37,7.5-7.37,3.62a6.44,6.44,0,0,1-2-3.87,15.18,15.18,0,0,1,.87-4.75c.38-1.38,0-1.88.13-3.38.5-4.5,3.37-8.87,5-13.12.37-1.38,4.37-9,2.37-9.13-.25-.12-2.12,2.5-2.5,2.88a58.12,58.12,0,0,0-4.25,5.5c-4.12,6.37-6.75,12.75-10.25,19.37-1.37,2.63-2.5,5.25-3.75,7.75-.5,1.25-1.37,2.38-1.75,3.63a6.12,6.12,0,0,1-.25,1.62c-1.25,2.25-6.12-1-7.37-2.5-2.63-3.12-1.63-6-1.75-9.5-.25-4.62,1.5-9.12,3-13.5a44.18,44.18,0,0,1,2.5-6.37,32.11,32.11,0,0,0,2.12-3.38c.38-.62-.12-1.25,1-1.75.88-.37,2.13.38,2.88,1,1,.88,1.62,2.5,2.25,3.25s1.87,1.5,1.37,3.25c0,.25-.25.5-.37.75-.75,1.25-1.88,2.38-2.75,3.63a5.82,5.82,0,0,0-1.13,1.87c-.25.88,0,1.25-.25,2.13-.37,1.75-1.37,3.25-1.75,5a18.65,18.65,0,0,0-.75,3.62c0,1.25.5,2.25.25,3.63,1.88-3,2.75-6.75,4.5-10,2-4,4-8.25,6.38-12.13,2-3.12,4.37-6.12,6.37-9.37,1.63-2.63,4.38-6.38,7.63-6.75,4.5-.63,8,4.87,7,8.87-.88,3.13-2.75,6.25-3.88,9.25-1.5,4.38-2.75,8.88-4,13.25a89.4,89.4,0,0,1,5.38-9.25L208,66.72c-.13-.88,10.25-14.38,11.5-15.63,3.37-3.25,10.5-6.75,12.37.13,1.63,6-1.5,13-3.62,18.37-2,4.75-4.88,10.38-5.88,15.13a2.72,2.72,0,0,1,.5-.75s-.87,6,.25,6.25c2.38.5,7.25-6.25,8.63-7.75,3.37-3.75,6.62-7.75,9.87-11.63.63-.75,6.13-8.25,7-5.5.13.25,0,.13,0,.13C249.38,68.72,246,72.84,244.38,75.22Zm-40.5-18.13v.13c.75-1.88,3-7.75,2.25-9.5.5,2-2.5,9.75-3,10.75-1.25,2.87-2.75,5.75-3.75,8.75A28.78,28.78,0,0,0,197.63,76c.25-2.75,1.5-5.75,2.5-8.25,1.25-3.38,2-7,3.5-10.13a1.91,1.91,0,0,1,.25-.37h-.12Z"/><path d="M286.88,67,283,72.09l-6.75,8.75c-1.75,2.25-3.88,4.38-5.63,6.63-1.87,2.5-3.5,5.12-5.62,7.5a33.38,33.38,0,0,1-7.88,6.5,8.11,8.11,0,0,1-6.37.62,16.66,16.66,0,0,1-8.25-5.37,4.63,4.63,0,0,1-1.38-2.38,15.91,15.91,0,0,1-.25-2.5c-.12-1.5.38-2.62.63-4.12s1-3.13,1.25-4.75.75-3.38,1-5a27.65,27.65,0,0,1,.25-4.63c.25-1,1-2,1.37-3.12a11.92,11.92,0,0,0-1.12,2.12c-.38,1-.63,2-1,2.88s-.5,1.87-.88,2.87a10.68,10.68,0,0,0-1.12,3.38c-.13,1.12,0,2.25-.13,3.37a13.61,13.61,0,0,0-.5,3.13c0,.37.25,1.12.25,1.37,0,.5-.25,1.13-.25,1.75,0,1.13.25,2.25.38,3.5-2-3.5-1.63-7-1-10.75s1.12-7.37,2-11a50.2,50.2,0,0,1,9.75-20.5c3.87-5.12,9-9,15.75-7.75,2.5.5,5.25,1.63,6.87,3.75,1.75,2.38,1.63,5.38.75,8.13-1.62,4.87-5.75,8.75-9.62,12a41.33,41.33,0,0,1-5.25,3.87,23,23,0,0,1-4,1.75l-2.13.75c-.87.25-1,.13-1.37.88-.63,1.25-.25,2.5-.5,3.75-.25,1.62-.63,3.12-1,4.75-.63,3-1.63,6.87-.88,10,1.38,6.37,11.88-3.5,13.75-5.25,1.25-1.13,2.38-2.38,3.5-3.5a27.61,27.61,0,0,0,1.88-2.13,3.81,3.81,0,0,0,.25-.87,68.38,68.38,0,0,1,5.37-6.88c2.25-2.62,4.25-5.37,6.38-8.25,1.12-1.62,3.75-6.25,5.75-2.87v.12c.12.13.12.13.12,0C287.88,65.59,287.51,66.22,286.88,67Zm-32.12,3a36.21,36.21,0,0,0,10.5-8.38l2.12-2.75c.38-.62,1-1,1.25-1.75s-.12-1.12,0-1.87l.5-2.63c.13-1.25-.37-4.5-2.25-4.12a5.8,5.8,0,0,0-2.25,2l-2.25,3c-2.62,3.87-4,8.12-5.87,12.12a1,1,0,0,1-.13.38C255.76,67.22,255.38,68.59,254.76,70Z"/><path d="M328,66.22c.5,4-5.75,7.25-8.38,9.12a94.22,94.22,0,0,1-11.25,7.25,22.86,22.86,0,0,0-3.5,1.75c-1.37,1.13-1.12,1-.87,3a41.91,41.91,0,0,1,.62,6.88,26.69,26.69,0,0,1-1.5,10.37c-3,7.75-9,12.75-17.62,12.5-7.63-.12-15.75-4.12-14.13-12.37a18.25,18.25,0,0,1-.62,2.25c-.88-.5,0-3.25.25-3.88,1.5-4.62,5.5-8.25,9.25-11.12,2.12-1.63,4.25-3.25,6.37-4.63,1.63-1,5.38-2.5,5.63-4.25s-1.25-5.5-1.75-7.37a70.57,70.57,0,0,1-1.63-7.38c-.12-1.62.38-2.62,0-4.12a24.65,24.65,0,0,1-1.37-6,15,15,0,0,1,.62-6.25c1-3,7.63-9.88,11-6.75,0-.63,1.63,1.75,1.75,2.5,0,.5-.5,5.12-1.25,5,0,0,.25-1.13.38-2-.63,1.75-1.63,3.37-1.75,5.25a16.6,16.6,0,0,0,.37,5c0-.25,0-.5.25-.63-.12,0,1.25,6.5,2.38,11.75-.88-3.37-2-7.37-2.5-9.75,1,5.5,2.25,10.88,3.5,16.25.12-.12.25-.37.12-1a4.7,4.7,0,0,1,.25.75,173.14,173.14,0,0,0,15.75-8.62c2.25-1.5,4.63-4,7-5.13,1.25-.5,2.25-.25,2.63,1.5ZM283,109l3.5-1.38c.12.13-1,.88-1,1a14.13,14.13,0,0,0,3.87-3.37l-.62.5c1-1,3.37-6,3.5-6.5a27.74,27.74,0,0,0,.75-9,3.29,3.29,0,0,1-.88.5L293,90l-1.5.87c.75-.25-1.63,1.63-2,1.88l-3.75,2.5c-2.5,1.75-5.25,3.62-7.13,6.12-1.12,1.63-4.37,6.75-1.12,7.75C279.26,109.72,281.26,109.34,283,109Zm16.62-2.63c-3.62,5.13-10,8.13-16.12,8.5a26.84,26.84,0,0,0,9.75-2.12A12.64,12.64,0,0,0,299.63,106.34Zm2-32.62a27.86,27.86,0,0,1,.75,3.5A32.37,32.37,0,0,1,301.63,73.72Zm2.25,15.87a.93.93,0,0,0,.13.63A5.59,5.59,0,0,1,303.88,89.59Z"/><path d="M379,73.47a93.86,93.86,0,0,1-5.5,10.5A95.49,95.49,0,0,1,366,94.59c-2.25,2.88-5.38,6.5-9.13,7.13-4.25.75-7.62-2.75-9-6.5-3-7.38-.87-15.13,1.38-22.25a17.66,17.66,0,0,1,.12-2c-1.25,1.87-3,4.12-4.12,5.87-1.5,2.38-2.63,4.75-4.25,7-.75,1.13-11,13.5-12.38,11.38,0,0,1.5-.63,1.38-.88a6.45,6.45,0,0,1-5.25.75c.37.25.62.38.5.38-2.88.37-5.13-4.13-5.75-6.13a24.62,24.62,0,0,1-.13-10.87A58.94,58.94,0,0,1,328,57.09a18.25,18.25,0,0,1,3.87-4.37c1-.88,1.88-1,3-1.75,1.88-1.63,3.5-3,6.25-3,6.13,0,8.63,7,9.88,11.75,3-3.88,8.37-9,13-3.38,2.5,3,.87,5.25-.5,8a57.76,57.76,0,0,0-5.25,14.25c.12-.37.5-2.25,1-2.37,1-.25-8,28,4.87,12.12,3.88-4.87,7.25-10,10.63-15.12,1.5-2.38,3-4.88,4.62-7.25.75-1,3-3.38,3.13-.63S380,71.09,379,73.47Zm-31.75-9.25c0-1-2.5-7.88-1.88-8.38.13-.12,1.25,3.5,1.38,3.75-.38-1.5-.88-6.12-3.13-6.12-4.12,0-7.25,7.62-8.62,10.5a73.55,73.55,0,0,0-5.75,17.75c.37-1.88,7.62-24.5,9.87-24.38-1.75.38-8.37,19.63-8.75,21.38-.25,1-2.25,7.5-.37,8.12,1.25.38,4.25-3.5,4.87-4.37q3.57-4.32,6.75-9l3.25-4.63c.5-.87,1.13-1.75,1.75-2.62A2.54,2.54,0,0,0,347.26,64.22Zm.37-.88v1.25C348,64.22,348,63.84,347.63,63.34Zm3,6-.62.88c-.13.37-.5,2.12-.5,2.12Z"/><path d="M423,66.22c.5,4-5.75,7.25-8.37,9.12a95,95,0,0,1-11.25,7.25,22.86,22.86,0,0,0-3.5,1.75c-1.38,1.13-1.13,1-.88,3a40.84,40.84,0,0,1,.63,6.88,26.88,26.88,0,0,1-1.5,10.37c-3,7.75-9,12.75-17.63,12.5-7.62-.12-15.75-4.12-14.12-12.37a18,18,0,0,1-.63,2.25c-.87-.5,0-3.25.25-3.88,1.5-4.62,5.5-8.25,9.25-11.12,2.13-1.63,4.25-3.25,6.38-4.63,1.62-1,5.37-2.5,5.62-4.25s-1.25-5.5-1.75-7.37a70.55,70.55,0,0,1-1.62-7.38c-.13-1.62.37-2.62,0-4.12a24.67,24.67,0,0,1-1.38-6,15.13,15.13,0,0,1,.63-6.25c1-3,7.62-9.88,11-6.75,0-.63,1.62,1.75,1.75,2.5,0,.5-.5,5.12-1.25,5,0,0,.25-1.13.37-2-.62,1.75-1.62,3.37-1.75,5.25a16.6,16.6,0,0,0,.38,5c0-.25,0-.5.25-.63-.13,0,1.25,6.5,2.37,11.75-.87-3.37-2-7.37-2.5-9.75,1,5.5,2.25,10.88,3.5,16.25.13-.12.25-.37.13-1a6.11,6.11,0,0,1,.25.75,174.49,174.49,0,0,0,15.75-8.62c2.25-1.5,4.62-4,7-5.13,1.25-.5,2.25-.25,2.62,1.5ZM378,109l3.5-1.38c.13.13-1,.88-1,1a14.31,14.31,0,0,0,3.88-3.37l-.63.5c1-1,3.38-6,3.5-6.5a27.2,27.2,0,0,0,.75-9,3.24,3.24,0,0,1-.87.5L388,90l-1.5.87c.75-.25-1.62,1.63-2,1.88l-3.75,2.5c-2.5,1.75-5.25,3.62-7.12,6.12-1.13,1.63-4.38,6.75-1.13,7.75C374.25,109.72,376.25,109.34,378,109Zm16.63-2.63c-3.63,5.13-10,8.13-16.13,8.5a26.8,26.8,0,0,0,9.75-2.12A12.7,12.7,0,0,0,394.63,106.34Zm2-32.62a32,32,0,0,1,.75,3.5A32.37,32.37,0,0,1,396.63,73.72Zm2.25,15.87a1,1,0,0,0,.12.63A6,6,0,0,1,398.88,89.59Z"/><path d="M22.13,191.69c.5,8.25-1.5,16.25-2.5,23.87a2.48,2.48,0,0,1,.5-1c.5-.25.12,2.38.12,2.5,3.25-6.25,7.63-11.87,10.88-18.12C36,189.81,42.75,181.69,49,173.44a196.16,196.16,0,0,1,17-19.75c2.75-2.75,6-4.88,8.88-7.38.75-.62.37-1,1.5-1.37,2-.63,4.5,2,5.12,3.62,1.63,4.5-6.87,6-9,7.88-1,.87-1.12,1.87-2.12,2.87s-2.38,2-3.5,3.13c-2.63,2.5-5.38,4.87-7.75,7.62a305,305,0,0,0-22.5,29.75c-1.5,2.25-3.5,4.5-4.63,7-.62,1.25-1.12,3-1.87,4.38-3.75,6.5-7.75,12.87-11.25,19.62-2.38,4.63-3.13,10.63-6.25,14.75-1.88,2.5-12.75,4.75-12.63-.5,0-1.75,1.75-4.12,2.38-5.75a73,73,0,0,0,2.5-11.5,81,81,0,0,1,1.87-11,15.7,15.7,0,0,0,.88-3.25s-.13-2.87.12-3c0,.13.13.25.13.38,0-.25.12-.5.12-.88-.37,1.13-.5-1.5-.5-1.62a31.83,31.83,0,0,1,.13-3.38,40.17,40.17,0,0,0,.25-7.75c-.13-1.37-1-12.87.25-13.12.25-.13.12.87.37.87a34,34,0,0,1-.12-3.5c-.13.25-.13.5-.25.63.12-.38-1.25-13.75-1.38-14.75a64.89,64.89,0,0,0-1-7.25c-.25-1.25-.5-2.63-.62-3.88a16.67,16.67,0,0,1,.25-2.75c0-.87-.63-1.5-.38-2.62.38-2,2.75-3.63,4.25-4.75,2-1.38,4.5-3,7-3.13,2-.25,2,.75,2.38,2.13a2,2,0,0,1,.25-.63c.37-.12,1.37,5.13.87,5.25-.25.13-.37-.37-.5-.87.63,4.25,1.13,8.62,1.38,12.87-.13-3.5-.25-6.5-.25-6.5s.25,4.25.5,9.75v1.5c0,.25.12.25.12.5,0-.12-.12-.25-.12-.37a1.15,1.15,0,0,0,.12.62,13.07,13.07,0,0,0,.13,2.25s-.13,0-.13-.12l.38,8c0-.13-.13-.38-.13-.5,0,.12.13.37.13.5ZM11.25,205.56c.38-5.37.25-11.12.13-16.62a219.29,219.29,0,0,1-2.25,32.5c-.63,4.37-1.5,8.75-2.38,13.12-.25,1.13-.62,2.25-.87,3.13a56.7,56.7,0,0,0,2.25-7.25c1.87-8.13,2.37-16.25,3.12-24.5Z"/><path d="M92.63,208.81l-3.88,5.13L82,222.69c-1.75,2.25-3.87,4.37-5.62,6.62-1.88,2.5-3.5,5.13-5.63,7.5a32.85,32.85,0,0,1-7.87,6.5,8.14,8.14,0,0,1-6.38.63,16.79,16.79,0,0,1-8.25-5.38,4.58,4.58,0,0,1-1.37-2.37,14.9,14.9,0,0,1-.25-2.5c-.13-1.5.37-2.63.62-4.13s1-3.12,1.25-4.75.75-3.37,1-5a29.82,29.82,0,0,1,.25-4.62c.25-1,1-2,1.38-3.13A11.75,11.75,0,0,0,50,214.19c-.37,1-.62,2-1,2.87s-.5,1.88-.87,2.88A10.81,10.81,0,0,0,47,223.31c-.12,1.13,0,2.25-.12,3.38a13.53,13.53,0,0,0-.5,3.12c0,.38.25,1.13.25,1.38,0,.5-.25,1.12-.25,1.75,0,1.12.25,2.25.37,3.5-2-3.5-1.62-7-1-10.75s1.13-7.38,2-11a50.21,50.21,0,0,1,9.75-20.5c3.88-5.13,9-9,15.75-7.75,2.5.5,5.25,1.62,6.88,3.75,1.75,2.37,1.62,5.37.75,8.12-1.63,4.88-5.75,8.75-9.63,12A40,40,0,0,1,66,214.19a22.65,22.65,0,0,1-4,1.75l-2.12.75c-.88.25-1,.12-1.38.87-.62,1.25-.25,2.5-.5,3.75-.25,1.63-.62,3.13-1,4.75-.62,3-1.62,6.88-.87,10,1.37,6.38,11.87-3.5,13.75-5.25,1.25-1.12,2.37-2.37,3.5-3.5.62-.75,1.37-1.37,1.87-2.12a3.94,3.94,0,0,0,.25-.88,68.07,68.07,0,0,1,5.38-6.87c2.25-2.63,4.25-5.38,6.37-8.25,1.13-1.63,3.75-6.25,5.75-2.88v.13c.13.12.13.12.13,0C93.63,207.44,93.25,208.06,92.63,208.81Zm-32.13,3A36.05,36.05,0,0,0,71,203.44l2.13-2.75c.37-.63,1-1,1.25-1.75s-.13-1.13,0-1.88l.5-2.62c.12-1.25-.38-4.5-2.25-4.13a5.81,5.81,0,0,0-2.25,2l-2.25,3c-2.63,3.88-4,8.13-5.88,12.13a1,1,0,0,1-.12.37C61.5,209.06,61.13,210.44,60.5,211.81Z"/><path d="M130.12,216.81c-2.75,3.5-5.25,7.25-8.25,10.5-2.25,2.38-6,6.38-9.5,5.25-.75-.25-5.37-2.75-5.25-3.37l.38.25-.75-.75c.62,1-.75-.25-.88-.25a9.93,9.93,0,0,1-1.5-2.38,9.69,9.69,0,0,1-.75-4.12c0-1.38.25-2.75.38-4.13a35.22,35.22,0,0,1,1.25-8.12c.25-.63,2.87-7.63,3.75-7.38.25,0-.38.88-.25,1l1.75-3.5c-.25.25-.38.5-.63.63a25.67,25.67,0,0,1,1.88-3.63c-2.5,2.88-4.5,5.88-6.75,8.88-1.63,2.12-3.63,3.5-4.75,5.5-2.63,4.5-5.88,8.62-8,13.25l-.5-1c-2.25,2.75-5.63-.5-6.88-2.63s-.75-3.5-.5-5.75c.25-2,.13-4,.75-6.12.75-2.63,1.75-5.13,2.75-7.75s1.75-5.25,2.75-7.88c.63-1.62,1.88-3.62,2.25-5.37.38-1.38,0-2.25,1.63-3.25a6.9,6.9,0,0,1,4.75-.5c2,.37,5.62,2.5,3.5,5.62-.88,1.13-2.38,2.38-3.38,3.63s-1,2-1.5,3.62c-.25,1-1.25,1.88-1.75,2.88a26.37,26.37,0,0,0-1.75,4.75,21.29,21.29,0,0,0-.25,2.75c-.25,2.62-1.12,5.25-1.37,7.87.12-.5,1-1.37,1.12-1.25s-1.25,2.25-1.12,2.25l7.37-10.75c-1.62,2.13-2.87,3.63-2.87,3.63-.38-.25,14.5-19.25,16.25-20.88,3.62-3.37,8.25-3.25,10,2.63,2,6.25-4.5,10.37-7.5,14.87a70.74,70.74,0,0,0-4.25,8.13c-.88,1.62-2.75,5.25-3,8,.25-1.88,1.62-4.13,2.12-5.38a17.06,17.06,0,0,1,4.38-6.62c-.88,1.62-1.88,3.12-2.63,4.62l.63-.75c.25,0-1.13,4.25-1.25,4.5a20.57,20.57,0,0,0-1.13,4.75,12.6,12.6,0,0,0,0,2.13l.13.12c0-.12.87-.25,1.12-.37,1.88-.63,3.75-2.38,5.25-3.63,3-2.37,5.88-5,8.75-7.5,2.13-2,4.88-4,6.63-6.12.75-1.13,2.5-3.13,3.12-.13S131.62,214.81,130.12,216.81Z"/><path d="M174.12,208.81l-3.87,5.13-6.75,8.75c-1.75,2.25-3.88,4.37-5.63,6.62-1.87,2.5-3.5,5.13-5.62,7.5a32.9,32.9,0,0,1-7.88,6.5,8.11,8.11,0,0,1-6.37.63,16.75,16.75,0,0,1-8.25-5.38,4.6,4.6,0,0,1-1.38-2.37,13.37,13.37,0,0,1,.38-6.63c.25-1.62,1-3.12,1.25-4.75s.75-3.37,1-5a27.53,27.53,0,0,1,.25-4.62c.25-1,1-2,1.37-3.13a11.64,11.64,0,0,0-1.12,2.13c-.38,1-.63,2-1,2.87s-.5,1.88-.88,2.88a10.54,10.54,0,0,0-1.12,3.37c-.13,1.13,0,2.25-.13,3.38a13.53,13.53,0,0,0-.5,3.12c0,.38.25,1.13.25,1.38,0,.5-.25,1.12-.25,1.75,0,1.12.25,2.25.38,3.5-2-3.5-1.63-7-1-10.75s1.12-7.38,2-11a50.08,50.08,0,0,1,9.75-20.5c3.87-5.13,9-9,15.75-7.75,2.5.5,5.25,1.62,6.87,3.75,1.75,2.37,1.63,5.37.75,8.12-1.62,4.88-5.75,8.75-9.62,12a41.4,41.4,0,0,1-5.25,3.88,23,23,0,0,1-4,1.75l-2.13.75c-.87.25-1,.12-1.37.87-.63,1.25-.25,2.5-.5,3.75-.25,1.63-.63,3.13-1,4.75-.63,3-1.63,6.88-.88,10,1.38,6.38,11.88-3.5,13.75-5.25,1.25-1.12,2.38-2.37,3.5-3.5a27.52,27.52,0,0,0,1.88-2.12,3.94,3.94,0,0,0,.25-.88,69.42,69.42,0,0,1,5.37-6.87c2.25-2.63,4.25-5.38,6.38-8.25,1.12-1.63,3.75-6.25,5.75-2.88v.13c.12.12.12.12.12,0C175.12,207.44,174.75,208.06,174.12,208.81Zm-32.12,3a36.18,36.18,0,0,0,10.5-8.37l2.12-2.75c.38-.63,1-1,1.25-1.75s-.12-1.13,0-1.88l.5-2.62c.13-1.25-.37-4.5-2.25-4.13a5.88,5.88,0,0,0-2.25,2l-2.25,3c-2.62,3.88-4,8.13-5.87,12.13a.94.94,0,0,1-.13.37C143,209.06,142.62,210.44,142,211.81Z"/><path d="M206.75,218.19l10.87-8.13c1-.75,6.63-6.5,8-3.87.5,1.5-1.12,3.25-2.12,4.25a107.27,107.27,0,0,1-9.88,8.5,49.9,49.9,0,0,0-4.75,3.87c-1,1.13-.87,1.25-.87,2.75a26.11,26.11,0,0,1-.13,3.25,32.14,32.14,0,0,1-3,10.25c-6.12,13.25-16.75,26.38-30.5,32,5.88-3.37,12.38-7.5,16.75-12.87a42.14,42.14,0,0,0,7.13-11.5c1.25-3.25,3-6.75,4.12-10.13-1.25,3.63-3.62,7.5-5.5,10.75a109.4,109.4,0,0,1-7.87,11c-3.63,5-8.88,8.75-14,12-5.38,3.5-12.75,4-19,3.25a24.78,24.78,0,0,1-6-1.5,10.27,10.27,0,0,1-5-3.87c-.88-1.38-.75-3.88-.88-4.38a9.75,9.75,0,0,1,.13-2c-.25.63-.5,1.38-.63,1.38-1.62-1.63,2.38-7.75,3.38-9.25,3.25-4.25,8.37-7.13,12.87-9.75,11.5-6.88,23.88-11.88,35.25-18.63,2.25-1.37,3.5-1.75,3.25-4.37-.25-1.88-1-4.5-2.37-5.88-2.75-2.62-7.5-.75-10.38.63-2.37,1.25-5.25,3.87-7.75,4.5a3.62,3.62,0,0,1-4.12-2.88,3.46,3.46,0,0,1,1-3.25v-.12c-.63-.25,3.75-2.75,3.87-2.75a19.12,19.12,0,0,0,4.75-3,44.06,44.06,0,0,1,5.63-3.75,21.9,21.9,0,0,0,2.5-2,11.68,11.68,0,0,1,1.25-1.75c1.12-1.13,2.62-2,3.75-3.13,2-2,3.62-4.5,5.62-6.62l-1.5.62H201c.25.5-11,3.38-11.88,3.5-1.75.38-4.37,1.13-6.12.38-1-.38-1.25-1-2-1.5s-1.63-.25-2.38-1.38a4.32,4.32,0,0,1,.38-4.25c.62-1,2.12-2.75,3.37-3a6.34,6.34,0,0,1,1.63.13v-.13c-.13-.5,3.62-1,3.62-.62,0,.12-.37.37-.87.5,2.62-.38,5.12-.75,7.75-.88a16.12,16.12,0,0,1-3.13-.12c0-.25,14.63-.75,16-.75,2.38.12,7.25,0,6.63,3.62-.25,1.5-1.88,3.13-2.88,4.13-3.12,3.25-7.5,5.62-10.5,8.25a1.69,1.69,0,0,1,1-.38s-9.25,8.75-10.12,9.5c7.12-.37,12.5,2.75,14.87,9.63a1,1,0,0,0,.25-.63C206.62,217.94,206.75,218.06,206.75,218.19ZM195,232.69c-4.13,2.62-8.5,4.87-12.63,7.37-.12.13-2,2-2.75,1.88l2-1.38-2.75,1.5a.27.27,0,0,1,.25.25c-.87,1.38-3.87,2.63-5.25,3.38l-5.62,3.25c-3.5,2-7.13,4-10.13,6.75s-8.87,8.12-5.12,12.37a4.24,4.24,0,0,0,2.25,1.38c1,.25,6.37-.63,6.5-.63s-.5.25-.88.5a40.8,40.8,0,0,0,4.88-2.25h-.13c1.25-.62,3.13-2.12,4-2.62a37.67,37.67,0,0,0,4.38-3.38,104.78,104.78,0,0,0,9.25-9,55.49,55.49,0,0,0,11-17.37C194.62,233.94,194.75,233.31,195,232.69Zm-14.88-21.25c.13,0,.13,0,.25-.13h-.12Zm25.63,4.5a30.91,30.91,0,0,0-5-5.63c.12.13-5.63-2.25-5.63-1.87,0-.63,5.63,1.62,5.38,1.5A13,13,0,0,1,205.75,215.94Zm-6.88,33c0,.12-.12.12-.25.25C198.75,249.06,198.87,249.06,198.87,248.94Zm6.88-33a4,4,0,0,1,.87,1.87A13,13,0,0,0,205.75,215.94Zm.12-31.75h1.5c-.25,0-.62-.13-.75-.13h-.12A5.59,5.59,0,0,0,205.87,184.19Zm1.75,39.62c-.62.5-.5,6.25-.75,7.88a26,26,0,0,0,.63-3.25A28.66,28.66,0,0,0,207.62,223.81Z"/><path d="M273,212.31a52.45,52.45,0,0,1-6.5,8.38c-3.63,3.87-8.88,10.25-14.75,10.62a7.63,7.63,0,0,1-7.13-3.62c-2.62-4.75.13-10.75,1.75-15.13-3.25,3.88-6.37,7.75-9.5,11.75-.87,1.13-10.37,10.75-11.62,9.13,0-.13,1.12-.63,1-.75a8.1,8.1,0,0,1-4,1.37c.12.13.37.13.62.13.25.87-3.37-.5-3.75-.75a9.34,9.34,0,0,1-2.37-5,29.3,29.3,0,0,1,1-11.88,67.66,67.66,0,0,1,3.75-11.75c.87-2,2.37-3,3.25-4.75,1.37-3.12,3.12-7.12,5.87-9.37,2.25-2,6.25-1.63,8.5.12s1,2.63,0,4.38a2,2,0,0,1,.75-.75c.25,0-2.75,6.12-3.37,6a15.05,15.05,0,0,1,.75-2c-1.63,2.87-3.13,5.87-4.5,8.87a.92.92,0,0,1,.75-.5c-.25-.12-4.75,11.5-5.13,12.5-.5,1.88-2.75,7.38.63,6.25,3.62-1,7.12-6,9.37-8.62a116.93,116.93,0,0,0,8.13-10.75c2.75-4.13,6-11,12.37-9.25,5.63,1.62,1.38,7.62-.37,11.12.25-.25.5-.62.62-.5.75.88-1.75,5.63-2.12,6.88a32.06,32.06,0,0,0-1.88,7.75c-.12,3,.75,2.12,2.75.62,4.25-3.37,7.75-7.62,11.38-11.5.25-.25,6-6.87,6.37-4.5C275.75,208.31,273.75,211.06,273,212.31Zm-42.88,1.13c-1.37,3.37-4,8.37-3.25,12C226.62,224.31,228.37,218.31,230.12,213.44Zm16.75-1.38a1.24,1.24,0,0,0-.5,1.13A4.65,4.65,0,0,1,246.87,212.06Zm12.88-10.62c-1.25,3.12-5,7.12-4,10.25a.44.44,0,0,1-.13.37c.13-.12.25-.25.25-.37a13,13,0,0,0,.75-2.38C257.5,206.69,258.75,204.19,259.75,201.44Z"/><path d="M313.87,208.81,310,213.94l-6.75,8.75c-1.75,2.25-3.88,4.37-5.63,6.62-1.87,2.5-3.5,5.13-5.62,7.5a32.9,32.9,0,0,1-7.88,6.5,8.11,8.11,0,0,1-6.37.63,16.75,16.75,0,0,1-8.25-5.38,4.6,4.6,0,0,1-1.38-2.37,13.37,13.37,0,0,1,.38-6.63c.25-1.62,1-3.12,1.25-4.75s.75-3.37,1-5a27.53,27.53,0,0,1,.25-4.62c.25-1,1-2,1.37-3.13a11.64,11.64,0,0,0-1.12,2.13c-.38,1-.63,2-1,2.87s-.5,1.88-.88,2.88a10.54,10.54,0,0,0-1.12,3.37c-.13,1.13,0,2.25-.13,3.38a13.53,13.53,0,0,0-.5,3.12c0,.38.25,1.13.25,1.38,0,.5-.25,1.12-.25,1.75,0,1.12.25,2.25.38,3.5-2-3.5-1.63-7-1-10.75s1.12-7.38,2-11a50.08,50.08,0,0,1,9.75-20.5c3.87-5.13,9-9,15.75-7.75,2.5.5,5.25,1.62,6.87,3.75,1.75,2.37,1.63,5.37.75,8.12-1.62,4.88-5.75,8.75-9.62,12a41.4,41.4,0,0,1-5.25,3.88,23,23,0,0,1-4,1.75l-2.13.75c-.87.25-1,.12-1.37.87-.63,1.25-.25,2.5-.5,3.75-.25,1.63-.63,3.13-1,4.75-.63,3-1.63,6.88-.88,10,1.38,6.38,11.88-3.5,13.75-5.25,1.25-1.12,2.38-2.37,3.5-3.5a27.52,27.52,0,0,0,1.88-2.12,3.94,3.94,0,0,0,.25-.88,69.42,69.42,0,0,1,5.37-6.87c2.25-2.63,4.25-5.38,6.38-8.25,1.12-1.63,3.75-6.25,5.75-2.88v.13c.12.12.12.12.12,0C314.87,207.44,314.5,208.06,313.87,208.81Zm-32.12,3a36.18,36.18,0,0,0,10.5-8.37l2.12-2.75c.38-.63,1-1,1.25-1.75s-.12-1.13,0-1.88l.5-2.62c.13-1.25-.37-4.5-2.25-4.13a5.88,5.88,0,0,0-2.25,2l-2.25,3c-2.62,3.88-4,8.13-5.87,12.13a.94.94,0,0,1-.13.37C282.75,209.06,282.37,210.44,281.75,211.81Z"/><path d="M358,209.06c-.75,2.75-2.37,5.25-3.87,7.75-3.75,6-7,12.38-11.13,18.38-4.5,6.5-9.37,13.12-15.12,18.75-4.88,4.62-11.63,8.25-17.5,2.87-5.25-4.87-5.25-13.62-4.88-20.25.5-7,2.38-13.75,4-20.5.13-.25,0-3.25.63-4.12a15,15,0,0,0-.25,1.87,22.33,22.33,0,0,1,.87-2.62h-.37c-.38-2.5,1.37-6.38,2.12-8.75.88-2.88,1.88-5.88,2.88-8.75,1.87-5.38,3.87-10.63,5.62-16a100,100,0,0,1,6.63-15.5c1.12-2.38,2.37-4.75,3.75-7.13.37-.62,3.12-6,3.75-5.87l-1,2.12,4-6.87-.13.12c.63-1,1.5-2.87,2.13-3.62l2.87-3.88c1.75-2.12,3.88-5.12,6.75-6,5.5-1.75,10,4,10.75,8.88l.13.12v.63c.75,7.62-3.75,16.62-7.13,23.12-2,4-4.12,8.88-7.25,12.13-2.12,2.37-3.25,4.87-5,7.75a227.9,227.9,0,0,1-15.5,22.25,13,13,0,0,0-2.87,5.12c-.75,2.38-1.38,4.75-2,7.25s-1.38,5-2,7.5c-.25,1.13-1.38,4.63-1.25,4.88a28.5,28.5,0,0,0-.75,4.62l1-3.75c.62,1-.38,4.75-.5,5.88a44.77,44.77,0,0,0-.38,5.87c0,2.38,0,7.75,3.13,8.25,4.25.5,8.75-5.87,10.87-8.5,5.13-6.12,9.38-13,13.63-19.75,2.25-3.5,4.37-7,6.5-10.62,1.37-2.25,2.5-5.38,4.25-7.25C358.24,202.44,358.49,207.06,358,209.06Zm-46,7.13c-.5,0-1.12,2.62-1.5,5.5v-.13a98,98,0,0,0-1.62,13.5l.37-4v.38a16.42,16.42,0,0,1,.38-2.5c.75-3.75.87-8.5,2.37-12a1,1,0,0,1,.13-.38C312.24,216.44,312.24,216.06,312,216.19Zm15.88-21.38c9.25-14.87,19.75-30.5,25.37-47.25-2.12,6-5.25,11.75-8.12,17.25-1.75,3.13-3.38,6.25-5.25,9.38-1.13,1.87-3.38,4.75-4.13,6.75,1-3.25,4-7,5.75-10l5.25-9.75c3-6,7.5-13.38,7.75-20.38v-.12c.25-6.63-5.37.87-6.25,2.25-3.5,5.62-6,11.75-8.5,17.75C335.12,171.81,331.49,183.81,327.87,194.81Zm4.12-35a.79.79,0,0,0-.12.5c2.75-5,6-9.75,8.62-15-1.25,2.25-3.5,4.25-4.75,6.63C334.37,154.56,333.12,157.06,332,159.81Z"/><path d="M409.74,215.31a91.39,91.39,0,0,1-5.5,10.5,94.32,94.32,0,0,1-7.5,10.63c-2.25,2.87-5.37,6.5-9.12,7.12-4.25.75-7.63-2.75-9-6.5-3-7.37-.88-15.12,1.37-22.25a16.42,16.42,0,0,1,.13-2c-1.25,1.88-3,4.13-4.13,5.88-1.5,2.37-2.62,4.75-4.25,7-.75,1.12-11,13.5-12.37,11.37,0,0,1.5-.62,1.37-.87a6.45,6.45,0,0,1-5.25.75c.38.25.63.37.5.37-2.87.38-5.12-4.12-5.75-6.12a24.52,24.52,0,0,1-.12-10.88,58.7,58.7,0,0,1,8.62-21.37,18.53,18.53,0,0,1,3.88-4.38,23.8,23.8,0,0,1,3-1.75c1.87-1.62,3.5-3,6.25-3,6.12,0,8.62,7,9.87,11.75,3-3.87,8.38-9,13-3.37,2.5,3,.88,5.25-.5,8A58,58,0,0,0,389,220.44c.13-.38.5-2.25,1-2.38,1-.25-8,28,4.88,12.13,3.87-4.88,7.25-10,10.62-15.13,1.5-2.37,3-4.87,4.63-7.25.75-1,3-3.37,3.12-.62S410.74,212.94,409.74,215.31ZM378,206.06c0-1-2.5-7.87-1.87-8.37.12-.13,1.25,3.5,1.37,3.75-.37-1.5-.87-6.13-3.12-6.13-4.13,0-7.25,7.63-8.63,10.5A73.83,73.83,0,0,0,360,223.56c.38-1.87,7.63-24.5,9.88-24.37-1.75.37-8.38,19.62-8.75,21.37-.25,1-2.25,7.5-.38,8.13,1.25.37,4.25-3.5,4.88-4.38q3.56-4.31,6.75-9l3.25-4.62a30.75,30.75,0,0,1,1.75-2.63A2.57,2.57,0,0,0,378,206.06Zm.38-.87v1.25C378.74,206.06,378.74,205.69,378.37,205.19Zm3,6-.63.87c-.12.38-.5,2.13-.5,2.13Z"/><path d="M421.62,241.19c-.88,2-2.13,2.62-3.88,4.25-1.5,1.37-2.75,3-5.12,1.75a11.63,11.63,0,0,1-3.63-3.38c-1.75-3.75,2.88-8.87,5.75-10.37,2.25-1.13,4.63-1.75,7.13-.75.62.12.62-.38,1.25.37.75,1,0,2.13,0,3C424.87,236.06,421.87,240.69,421.62,241.19Zm24.12-85c-1.12,3.25-2.5,6.5-3.75,9.75-2.37,6.25-4.37,12.62-6.5,19-3.5,10.37-6,21.12-9.75,31.5-.75,1.87-3.62,12.25-6.75,9-2-2,.25-8.38.75-10.75.75-3.13,1.88-6.13,2.63-9.25,3.25-13.38,6.12-27,8.62-40.63.5-3.5,1.63-7.12,1.75-10.62,0-2-.25-3.63,1.63-5.25,3.62-3.13,11.5-1.88,12.12,3.37v.13A17.55,17.55,0,0,1,445.74,156.19Zm-18.5,43.12a1,1,0,0,0-.12.5A1,1,0,0,1,427.24,199.31Zm3.25-13.37a34.19,34.19,0,0,0-1.87,7.62,35.14,35.14,0,0,1-1.38,5.75c.88-3.12,2.88-6.25,3.5-9.62a83.43,83.43,0,0,0,1.63-11v-.13A71.16,71.16,0,0,1,430.49,185.94Z"/></g></g></svg>